ISO-10303-21;
HEADER;
FILE_DESCRIPTION(('Open CASCADE Model'),'2;1');
FILE_NAME('Open CASCADE Shape Model','2026-08-23T11:27:53',('Author'),(
    'Open CASCADE'),'Open CASCADE STEP processor 7.9','Open CASCADE 7.9'
  ,'Unknown');
FILE_SCHEMA(('AUTOMOTIVE_DESIGN { 1 0 10303 214 1 1 1 1 }'));
ENDSEC;
DATA;
#1 = APPLICATION_PROTOCOL_DEFINITION('international standard',
  'automotive_design',2000,#2);
#2 = APPLICATION_CONTEXT(
  'core data for automotive mechanical design processes');
#3 = SHAPE_DEFINITION_REPRESENTATION(#4,#10);
#4 = PRODUCT_DEFINITION_SHAPE('','',#5);
#5 = PRODUCT_DEFINITION('design','',#6,#9);
#6 = PRODUCT_DEFINITION_FORMATION('','',#7);
#7 = PRODUCT('Open CASCADE STEP translator 7.9 44',
  'Open CASCADE STEP translator 7.9 44','',(#8));
#8 = PRODUCT_CONTEXT('',#2,'mechanical');
#9 = PRODUCT_DEFINITION_CONTEXT('part definition',#2,'design');
#10 = ADVANCED_BREP_SHAPE_REPRESENTATION('',(#11,#15),#650);
#11 = AXIS2_PLACEMENT_3D('',#12,#13,#14);
#12 = CARTESIAN_POINT('',(0.,0.,0.));
#13 = DIRECTION('',(0.,0.,1.));
#14 = DIRECTION('',(1.,0.,-0.));
#15 = MANIFOLD_SOLID_BREP('',#16);
#16 = CLOSED_SHELL('',(#17,#452,#481,#531,#558,#587,#639,#645));
#17 = ADVANCED_FACE('',(#18),#33,.T.);
#18 = FACE_BOUND('',#19,.T.);
#19 = EDGE_LOOP('',(#20,#56,#79,#108,#148,#255,#277,#278,#302,#414));
#20 = ORIENTED_EDGE('',*,*,#21,.F.);
#21 = EDGE_CURVE('',#22,#24,#26,.T.);
#22 = VERTEX_POINT('',#23);
#23 = CARTESIAN_POINT('',(-97.,-72.22309978841,89.768386415627));
#24 = VERTEX_POINT('',#25);
#25 = CARTESIAN_POINT('',(-82.70682183009,-72.55970128806,104.));
#26 = SURFACE_CURVE('',#27,(#32,#44),.PCURVE_S1.);
#27 = CIRCLE('',#28,14.5);
#28 = AXIS2_PLACEMENT_3D('',#29,#30,#31);
#29 = CARTESIAN_POINT('',(-97.,-75.,104.));
#30 = DIRECTION('',(0.165267257627,-0.967993937532,-0.18887686586));
#31 = DIRECTION('',(3.469446951954E-18,0.19151035942,-0.981490592026));
#32 = PCURVE('',#33,#38);
#33 = CYLINDRICAL_SURFACE('',#34,14.5);
#34 = AXIS2_PLACEMENT_3D('',#35,#36,#37);
#35 = CARTESIAN_POINT('',(-104.,-34.,112.));
#36 = DIRECTION('',(0.165267257627,-0.967993937532,-0.18887686586));
#37 = DIRECTION('',(0.,0.19151035942,-0.981490592026));
#38 = DEFINITIONAL_REPRESENTATION('',(#39),#43);
#39 = LINE('',#40,#41);
#40 = CARTESIAN_POINT('',(0.,42.355637169095));
#41 = VECTOR('',#42,1.);
#42 = DIRECTION('',(1.,0.));
#43 = ( GEOMETRIC_REPRESENTATION_CONTEXT(2) 
PARAMETRIC_REPRESENTATION_CONTEXT() REPRESENTATION_CONTEXT('2D SPACE',''
  ) );
#44 = PCURVE('',#45,#50);
#45 = PLANE('',#46);
#46 = AXIS2_PLACEMENT_3D('',#47,#48,#49);
#47 = CARTESIAN_POINT('',(-97.,-75.,104.));
#48 = DIRECTION('',(0.165267257627,-0.967993937532,-0.18887686586));
#49 = DIRECTION('',(0.,0.19151035942,-0.981490592026));
#50 = DEFINITIONAL_REPRESENTATION('',(#51),#55);
#51 = CIRCLE('',#52,14.5);
#52 = AXIS2_PLACEMENT_2D('',#53,#54);
#53 = CARTESIAN_POINT('',(0.,0.));
#54 = DIRECTION('',(1.,0.));
#55 = ( GEOMETRIC_REPRESENTATION_CONTEXT(2) 
PARAMETRIC_REPRESENTATION_CONTEXT() REPRESENTATION_CONTEXT('2D SPACE',''
  ) );
#56 = ORIENTED_EDGE('',*,*,#57,.F.);
#57 = EDGE_CURVE('',#58,#22,#60,.T.);
#58 = VERTEX_POINT('',#59);
#59 = CARTESIAN_POINT('',(-104.,-31.22309978841,97.768386415627));
#60 = SEAM_CURVE('',#61,(#65,#72),.PCURVE_S1.);
#61 = LINE('',#62,#63);
#62 = CARTESIAN_POINT('',(-104.,-31.22309978841,97.768386415627));
#63 = VECTOR('',#64,1.);
#64 = DIRECTION('',(0.165267257627,-0.967993937532,-0.18887686586));
#65 = PCURVE('',#33,#66);
#66 = DEFINITIONAL_REPRESENTATION('',(#67),#71);
#67 = LINE('',#68,#69);
#68 = CARTESIAN_POINT('',(6.28318530718,-0.));
#69 = VECTOR('',#70,1.);
#70 = DIRECTION('',(0.,1.));
#71 = ( GEOMETRIC_REPRESENTATION_CONTEXT(2) 
PARAMETRIC_REPRESENTATION_CONTEXT() REPRESENTATION_CONTEXT('2D SPACE',''
  ) );
#72 = PCURVE('',#33,#73);
#73 = DEFINITIONAL_REPRESENTATION('',(#74),#78);
#74 = LINE('',#75,#76);
#75 = CARTESIAN_POINT('',(0.,-0.));
#76 = VECTOR('',#77,1.);
#77 = DIRECTION('',(0.,1.));
#78 = ( GEOMETRIC_REPRESENTATION_CONTEXT(2) 
PARAMETRIC_REPRESENTATION_CONTEXT() REPRESENTATION_CONTEXT('2D SPACE',''
  ) );
#79 = ORIENTED_EDGE('',*,*,#80,.T.);
#80 = EDGE_CURVE('',#58,#81,#83,.T.);
#81 = VERTEX_POINT('',#82);
#82 = CARTESIAN_POINT('',(-89.70682183009,-31.55970128806,112.));
#83 = SURFACE_CURVE('',#84,(#89,#96),.PCURVE_S1.);
#84 = CIRCLE('',#85,14.5);
#85 = AXIS2_PLACEMENT_3D('',#86,#87,#88);
#86 = CARTESIAN_POINT('',(-104.,-34.,112.));
#87 = DIRECTION('',(0.165267257627,-0.967993937532,-0.18887686586));
#88 = DIRECTION('',(3.469446951954E-18,0.19151035942,-0.981490592026));
#89 = PCURVE('',#33,#90);
#90 = DEFINITIONAL_REPRESENTATION('',(#91),#95);
#91 = LINE('',#92,#93);
#92 = CARTESIAN_POINT('',(0.,0.));
#93 = VECTOR('',#94,1.);
#94 = DIRECTION('',(1.,0.));
#95 = ( GEOMETRIC_REPRESENTATION_CONTEXT(2) 
PARAMETRIC_REPRESENTATION_CONTEXT() REPRESENTATION_CONTEXT('2D SPACE',''
  ) );
#96 = PCURVE('',#97,#102);
#97 = PLANE('',#98);
#98 = AXIS2_PLACEMENT_3D('',#99,#100,#101);
#99 = CARTESIAN_POINT('',(-104.,-34.,112.));
#100 = DIRECTION('',(0.165267257627,-0.967993937532,-0.18887686586));
#101 = DIRECTION('',(0.,0.19151035942,-0.981490592026));
#102 = DEFINITIONAL_REPRESENTATION('',(#103),#107);
#103 = CIRCLE('',#104,14.5);
#104 = AXIS2_PLACEMENT_2D('',#105,#106);
#105 = CARTESIAN_POINT('',(0.,0.));
#106 = DIRECTION('',(1.,0.));
#107 = ( GEOMETRIC_REPRESENTATION_CONTEXT(2) 
PARAMETRIC_REPRESENTATION_CONTEXT() REPRESENTATION_CONTEXT('2D SPACE',''
  ) );
#108 = ORIENTED_EDGE('',*,*,#109,.T.);
#109 = EDGE_CURVE('',#81,#110,#112,.T.);
#110 = VERTEX_POINT('',#111);
#111 = CARTESIAN_POINT('',(-93.08763792675,-34.,121.54831681409));
#112 = SURFACE_CURVE('',#113,(#118,#125),.PCURVE_S1.);
#113 = CIRCLE('',#114,14.5);
#114 = AXIS2_PLACEMENT_3D('',#115,#116,#117);
#115 = CARTESIAN_POINT('',(-104.,-34.,112.));
#116 = DIRECTION('',(0.165267257627,-0.967993937532,-0.18887686586));
#117 = DIRECTION('',(3.469446951954E-18,0.19151035942,-0.981490592026));
#118 = PCURVE('',#33,#119);
#119 = DEFINITIONAL_REPRESENTATION('',(#120),#124);
#120 = LINE('',#121,#122);
#121 = CARTESIAN_POINT('',(0.,0.));
#122 = VECTOR('',#123,1.);
#123 = DIRECTION('',(1.,0.));
#124 = ( GEOMETRIC_REPRESENTATION_CONTEXT(2) 
PARAMETRIC_REPRESENTATION_CONTEXT() REPRESENTATION_CONTEXT('2D SPACE',''
  ) );
#125 = PCURVE('',#126,#131);
#126 = SPHERICAL_SURFACE('',#127,14.5);
#127 = AXIS2_PLACEMENT_3D('',#128,#129,#130);
#128 = CARTESIAN_POINT('',(-104.,-34.,112.));
#129 = DIRECTION('',(0.,0.,1.));
#130 = DIRECTION('',(1.,0.,-0.));
#131 = DEFINITIONAL_REPRESENTATION('',(#132),#147);
#132 = B_SPLINE_CURVE_WITH_KNOTS('',7,(#133,#134,#135,#136,#137,#138,
    #139,#140,#141,#142,#143,#144,#145,#146),.UNSPECIFIED.,.F.,.F.,(8,6,
    8),(1.538560227877,1.906051647584,2.27354306729),.UNSPECIFIED.);
#133 = CARTESIAN_POINT('',(0.169101226001,-1.666100207989E-14));
#134 = CARTESIAN_POINT('',(0.159185422061,5.155383719282E-02));
#135 = CARTESIAN_POINT('',(0.149269570731,0.103107669623));
#136 = CARTESIAN_POINT('',(0.139267852516,0.154653245239));
#137 = CARTESIAN_POINT('',(0.129093540141,0.206182220879));
#138 = CARTESIAN_POINT('',(0.118653955126,0.257685676613));
#139 = CARTESIAN_POINT('',(0.10784069902,0.309153157461));
#140 = CARTESIAN_POINT('',(8.518961955899E-02,0.411989327471));
#141 = CARTESIAN_POINT('',(7.33517875721E-02,0.463358016214));
#142 = CARTESIAN_POINT('',(6.086236317601E-02,0.514663814863));
#143 = CARTESIAN_POINT('',(4.755233248505E-02,0.565890329954));
#144 = CARTESIAN_POINT('',(3.319874925908E-02,0.617015797025));
#145 = CARTESIAN_POINT('',(1.750759133271E-02,0.668011504426));
#146 = CARTESIAN_POINT('',(5.860220343602E-15,0.718829999622));
#147 = ( GEOMETRIC_REPRESENTATION_CONTEXT(2) 
PARAMETRIC_REPRESENTATION_CONTEXT() REPRESENTATION_CONTEXT('2D SPACE',''
  ) );
#148 = ORIENTED_EDGE('',*,*,#149,.T.);
#149 = EDGE_CURVE('',#110,#150,#152,.T.);
#150 = VERTEX_POINT('',#151);
#151 = CARTESIAN_POINT('',(-118.2931781699,-36.44029871193,112.));
#152 = SURFACE_CURVE('',#153,(#158,#165),.PCURVE_S1.);
#153 = CIRCLE('',#154,14.5);
#154 = AXIS2_PLACEMENT_3D('',#155,#156,#157);
#155 = CARTESIAN_POINT('',(-104.,-34.,112.));
#156 = DIRECTION('',(0.165267257627,-0.967993937532,-0.18887686586));
#157 = DIRECTION('',(3.469446951954E-18,0.19151035942,-0.981490592026));
#158 = PCURVE('',#33,#159);
#159 = DEFINITIONAL_REPRESENTATION('',(#160),#164);
#160 = LINE('',#161,#162);
#161 = CARTESIAN_POINT('',(0.,0.));
#162 = VECTOR('',#163,1.);
#163 = DIRECTION('',(1.,0.));
#164 = ( GEOMETRIC_REPRESENTATION_CONTEXT(2) 
PARAMETRIC_REPRESENTATION_CONTEXT() REPRESENTATION_CONTEXT('2D SPACE',''
  ) );
#165 = PCURVE('',#126,#166);
#166 = DEFINITIONAL_REPRESENTATION('',(#167),#254);
#167 = B_SPLINE_CURVE_WITH_KNOTS('',8,(#168,#169,#170,#171,#172,#173,
    #174,#175,#176,#177,#178,#179,#180,#181,#182,#183,#184,#185,#186,
    #187,#188,#189,#190,#191,#192,#193,#194,#195,#196,#197,#198,#199,
    #200,#201,#202,#203,#204,#205,#206,#207,#208,#209,#210,#211,#212,
    #213,#214,#215,#216,#217,#218,#219,#220,#221,#222,#223,#224,#225,
    #226,#227,#228,#229,#230,#231,#232,#233,#234,#235,#236,#237,#238,
    #239,#240,#241,#242,#243,#244,#245,#246,#247,#248,#249,#250,#251,
    #252,#253),.UNSPECIFIED.,.F.,.F.,(9,7,7,7,7,7,7,7,7,7,7,7,9),(
    2.27354306729,2.574369294062,2.705980768275,2.829366525349,
    2.945040672607,3.05348518566,3.155151916648,3.25046447695,
    3.429175527514,3.585547696758,3.859198992936,4.269675937201,
    4.680152881467),.UNSPECIFIED.);
#168 = CARTESIAN_POINT('',(6.28318530718,0.718829999622));
#169 = CARTESIAN_POINT('',(6.270645150966,0.755229745092));
#170 = CARTESIAN_POINT('',(6.257192066168,0.791540423444));
#171 = CARTESIAN_POINT('',(6.24266182071,0.827745765757));
#172 = CARTESIAN_POINT('',(6.226847588981,0.863825139994));
#173 = CARTESIAN_POINT('',(6.209484872116,0.89975211604));
#174 = CARTESIAN_POINT('',(6.190218373166,0.935490639035));
#175 = CARTESIAN_POINT('',(6.168562584129,0.970991338387));
#176 = CARTESIAN_POINT('',(6.132905333507,1.021566655197));
#177 = CARTESIAN_POINT('',(6.121450322884,1.036898296593));
#178 = CARTESIAN_POINT('',(6.109328927541,1.052162403126));
#179 = CARTESIAN_POINT('',(6.096467297073,1.067351113203));
#180 = CARTESIAN_POINT('',(6.082779323086,1.082455187647));
#181 = CARTESIAN_POINT('',(6.068163311479,1.097463582285));
#182 = CARTESIAN_POINT('',(6.052497315411,1.112362797667));
#183 = CARTESIAN_POINT('',(6.019822954126,1.140985888628));
#184 = CARTESIAN_POINT('',(6.002959723437,1.15472501345));
#185 = CARTESIAN_POINT('',(5.984921017563,1.168339527351));
#186 = CARTESIAN_POINT('',(5.965564592281,1.181812882758));
#187 = CARTESIAN_POINT('',(5.944722758235,1.195125273595));
#188 = CARTESIAN_POINT('',(5.922196518983,1.208252560784));
#189 = CARTESIAN_POINT('',(5.897749467304,1.221164687184));
#190 = CARTESIAN_POINT('',(5.846118913952,1.245691295871));
#191 = CARTESIAN_POINT('',(5.819201962274,1.257336431988));
#192 = CARTESIAN_POINT('',(5.790120365539,1.268727635646));
#193 = CARTESIAN_POINT('',(5.758609931956,1.279827159425));
#194 = CARTESIAN_POINT('',(5.724373503812,1.290589643246));
#195 = CARTESIAN_POINT('',(5.687077741789,1.300959540446));
#196 = CARTESIAN_POINT('',(5.646371041271,1.31086878309));
#197 = CARTESIAN_POINT('',(5.560301272854,1.329018307844));
#198 = CARTESIAN_POINT('',(5.515388273666,1.33732419437));
#199 = CARTESIAN_POINT('',(5.466957447074,1.345087194159));
#200 = CARTESIAN_POINT('',(5.414793504064,1.352230482231));
#201 = CARTESIAN_POINT('',(5.358766821636,1.358667917022));
#202 = CARTESIAN_POINT('',(5.298909751357,1.364304795776));
#203 = CARTESIAN_POINT('',(5.235570417242,1.369049867953));
#204 = CARTESIAN_POINT('',(5.107327383101,1.376372754979));
#205 = CARTESIAN_POINT('',(5.042768778062,1.379067487128));
#206 = CARTESIAN_POINT('',(4.976226295248,1.380852830854));
#207 = CARTESIAN_POINT('',(4.908436465689,1.381681556264));
#208 = CARTESIAN_POINT('',(4.84035230703,1.381529007336));
#209 = CARTESIAN_POINT('',(4.772975778141,1.380404758022));
#210 = CARTESIAN_POINT('',(4.707135327266,1.378344766406));
#211 = CARTESIAN_POINT('',(4.583762260831,1.372643548981));
#212 = CARTESIAN_POINT('',(4.525967424071,1.369109211892));
#213 = CARTESIAN_POINT('',(4.470591242652,1.364842904775));
#214 = CARTESIAN_POINT('',(4.417990096073,1.359902025928));
#215 = CARTESIAN_POINT('',(4.36832428927,1.354349711905));
#216 = CARTESIAN_POINT('',(4.321604027674,1.348248279545));
#217 = CARTESIAN_POINT('',(4.277756577041,1.341655226904));
#218 = CARTESIAN_POINT('',(4.159587273854,1.321437469292));
#219 = CARTESIAN_POINT('',(4.092171220479,1.306707805994));
#220 = CARTESIAN_POINT('',(4.033570448607,1.290779133009));
#221 = CARTESIAN_POINT('',(3.982294885337,1.273928744266));
#222 = CARTESIAN_POINT('',(3.937116814077,1.256344839698));
#223 = CARTESIAN_POINT('',(3.897023047506,1.238171855602));
#224 = CARTESIAN_POINT('',(3.861199218664,1.219516152853));
#225 = CARTESIAN_POINT('',(3.800804954905,1.183786657545));
#226 = CARTESIAN_POINT('',(3.775387605349,1.166806629503));
#227 = CARTESIAN_POINT('',(3.752296821173,1.149575470032));
#228 = CARTESIAN_POINT('',(3.731185811808,1.132134179306));
#229 = CARTESIAN_POINT('',(3.711778226992,1.114514122734));
#230 = CARTESIAN_POINT('',(3.693850145723,1.096740236217));
#231 = CARTESIAN_POINT('',(3.677216898114,1.078832939468));
#232 = CARTESIAN_POINT('',(3.63461340876,1.02926643874));
#233 = CARTESIAN_POINT('',(3.610996511853,0.997366249988));
#234 = CARTESIAN_POINT('',(3.590050611508,0.965197189143));
#235 = CARTESIAN_POINT('',(3.571237642282,0.932815082668));
#236 = CARTESIAN_POINT('',(3.554169320434,0.900259711047));
#237 = CARTESIAN_POINT('',(3.538548927321,0.867561372649));
#238 = CARTESIAN_POINT('',(3.524149733126,0.834742792788));
#239 = CARTESIAN_POINT('',(3.49074876793,0.75244152296));
#240 = CARTESIAN_POINT('',(3.473045702473,0.702831387753));
#241 = CARTESIAN_POINT('',(3.45706696194,0.653053287544));
#242 = CARTESIAN_POINT('',(3.442434986069,0.603144340768));
#243 = CARTESIAN_POINT('',(3.428870688292,0.553131971429));
#244 = CARTESIAN_POINT('',(3.416166820016,0.503036369569));
#245 = CARTESIAN_POINT('',(3.40415773014,0.452873661433));
#246 = CARTESIAN_POINT('',(3.381259068635,0.352440217793));
#247 = CARTESIAN_POINT('',(3.370369470556,0.302169485328));
#248 = CARTESIAN_POINT('',(3.359904488089,0.251857847511));
#249 = CARTESIAN_POINT('',(3.349758580083,0.201515498356));
#250 = CARTESIAN_POINT('',(3.339842485262,0.15115104114));
#251 = CARTESIAN_POINT('',(3.330076272567,0.100772170429));
#252 = CARTESIAN_POINT('',(3.320385079434,5.0386084868E-02));
#253 = CARTESIAN_POINT('',(3.310693879591,-1.078064840464E-14));
#254 = ( GEOMETRIC_REPRESENTATION_CONTEXT(2) 
PARAMETRIC_REPRESENTATION_CONTEXT() REPRESENTATION_CONTEXT('2D SPACE',''
  ) );
#255 = ORIENTED_EDGE('',*,*,#256,.T.);
#256 = EDGE_CURVE('',#150,#58,#257,.T.);
#257 = SURFACE_CURVE('',#258,(#263,#270),.PCURVE_S1.);
#258 = CIRCLE('',#259,14.5);
#259 = AXIS2_PLACEMENT_3D('',#260,#261,#262);
#260 = CARTESIAN_POINT('',(-104.,-34.,112.));
#261 = DIRECTION('',(0.165267257627,-0.967993937532,-0.18887686586));
#262 = DIRECTION('',(3.469446951954E-18,0.19151035942,-0.981490592026));
#263 = PCURVE('',#33,#264);
#264 = DEFINITIONAL_REPRESENTATION('',(#265),#269);
#265 = LINE('',#266,#267);
#266 = CARTESIAN_POINT('',(0.,0.));
#267 = VECTOR('',#268,1.);
#268 = DIRECTION('',(1.,0.));
#269 = ( GEOMETRIC_REPRESENTATION_CONTEXT(2) 
PARAMETRIC_REPRESENTATION_CONTEXT() REPRESENTATION_CONTEXT('2D SPACE',''
  ) );
#270 = PCURVE('',#97,#271);
#271 = DEFINITIONAL_REPRESENTATION('',(#272),#276);
#272 = CIRCLE('',#273,14.5);
#273 = AXIS2_PLACEMENT_2D('',#274,#275);
#274 = CARTESIAN_POINT('',(0.,0.));
#275 = DIRECTION('',(1.,0.));
#276 = ( GEOMETRIC_REPRESENTATION_CONTEXT(2) 
PARAMETRIC_REPRESENTATION_CONTEXT() REPRESENTATION_CONTEXT('2D SPACE',''
  ) );
#277 = ORIENTED_EDGE('',*,*,#57,.T.);
#278 = ORIENTED_EDGE('',*,*,#279,.F.);
#279 = EDGE_CURVE('',#280,#22,#282,.T.);
#280 = VERTEX_POINT('',#281);
#281 = CARTESIAN_POINT('',(-111.2931781699,-77.44029871193,104.));
#282 = SURFACE_CURVE('',#283,(#288,#295),.PCURVE_S1.);
#283 = CIRCLE('',#284,14.5);
#284 = AXIS2_PLACEMENT_3D('',#285,#286,#287);
#285 = CARTESIAN_POINT('',(-97.,-75.,104.));
#286 = DIRECTION('',(0.165267257627,-0.967993937532,-0.18887686586));
#287 = DIRECTION('',(3.469446951954E-18,0.19151035942,-0.981490592026));
#288 = PCURVE('',#33,#289);
#289 = DEFINITIONAL_REPRESENTATION('',(#290),#294);
#290 = LINE('',#291,#292);
#291 = CARTESIAN_POINT('',(0.,42.355637169095));
#292 = VECTOR('',#293,1.);
#293 = DIRECTION('',(1.,0.));
#294 = ( GEOMETRIC_REPRESENTATION_CONTEXT(2) 
PARAMETRIC_REPRESENTATION_CONTEXT() REPRESENTATION_CONTEXT('2D SPACE',''
  ) );
#295 = PCURVE('',#45,#296);
#296 = DEFINITIONAL_REPRESENTATION('',(#297),#301);
#297 = CIRCLE('',#298,14.5);
#298 = AXIS2_PLACEMENT_2D('',#299,#300);
#299 = CARTESIAN_POINT('',(0.,0.));
#300 = DIRECTION('',(1.,0.));
#301 = ( GEOMETRIC_REPRESENTATION_CONTEXT(2) 
PARAMETRIC_REPRESENTATION_CONTEXT() REPRESENTATION_CONTEXT('2D SPACE',''
  ) );
#302 = ORIENTED_EDGE('',*,*,#303,.F.);
#303 = EDGE_CURVE('',#304,#280,#306,.T.);
#304 = VERTEX_POINT('',#305);
#305 = CARTESIAN_POINT('',(-86.08763792675,-75.,113.54831681409));
#306 = SURFACE_CURVE('',#307,(#312,#319),.PCURVE_S1.);
#307 = CIRCLE('',#308,14.5);
#308 = AXIS2_PLACEMENT_3D('',#309,#310,#311);
#309 = CARTESIAN_POINT('',(-97.,-75.,104.));
#310 = DIRECTION('',(0.165267257627,-0.967993937532,-0.18887686586));
#311 = DIRECTION('',(3.469446951954E-18,0.19151035942,-0.981490592026));
#312 = PCURVE('',#33,#313);
#313 = DEFINITIONAL_REPRESENTATION('',(#314),#318);
#314 = LINE('',#315,#316);
#315 = CARTESIAN_POINT('',(0.,42.355637169095));
#316 = VECTOR('',#317,1.);
#317 = DIRECTION('',(1.,0.));
#318 = ( GEOMETRIC_REPRESENTATION_CONTEXT(2) 
PARAMETRIC_REPRESENTATION_CONTEXT() REPRESENTATION_CONTEXT('2D SPACE',''
  ) );
#319 = PCURVE('',#320,#325);
#320 = SPHERICAL_SURFACE('',#321,14.5);
#321 = AXIS2_PLACEMENT_3D('',#322,#323,#324);
#322 = CARTESIAN_POINT('',(-97.,-75.,104.));
#323 = DIRECTION('',(0.,0.,1.));
#324 = DIRECTION('',(1.,0.,-0.));
#325 = DEFINITIONAL_REPRESENTATION('',(#326),#413);
#326 = B_SPLINE_CURVE_WITH_KNOTS('',8,(#327,#328,#329,#330,#331,#332,
    #333,#334,#335,#336,#337,#338,#339,#340,#341,#342,#343,#344,#345,
    #346,#347,#348,#349,#350,#351,#352,#353,#354,#355,#356,#357,#358,
    #359,#360,#361,#362,#363,#364,#365,#366,#367,#368,#369,#370,#371,
    #372,#373,#374,#375,#376,#377,#378,#379,#380,#381,#382,#383,#384,
    #385,#386,#387,#388,#389,#390,#391,#392,#393,#394,#395,#396,#397,
    #398,#399,#400,#401,#402,#403,#404,#405,#406,#407,#408,#409,#410,
    #411,#412),.UNSPECIFIED.,.F.,.F.,(9,7,7,7,7,7,7,7,7,7,7,7,9),(
    2.27354306729,2.574369294062,2.705980768275,2.829366525349,
    2.945040672607,3.05348518566,3.155151916648,3.25046447695,
    3.429175527514,3.585547696758,3.859198992936,4.269675937201,
    4.680152881467),.UNSPECIFIED.);
#327 = CARTESIAN_POINT('',(6.28318530718,0.718829999622));
#328 = CARTESIAN_POINT('',(6.270645150966,0.755229745092));
#329 = CARTESIAN_POINT('',(6.257192066168,0.791540423444));
#330 = CARTESIAN_POINT('',(6.242661820709,0.827745765755));
#331 = CARTESIAN_POINT('',(6.226847588981,0.863825139993));
#332 = CARTESIAN_POINT('',(6.209484872116,0.89975211604));
#333 = CARTESIAN_POINT('',(6.190218373166,0.935490639034));
#334 = CARTESIAN_POINT('',(6.168562584129,0.970991338387));
#335 = CARTESIAN_POINT('',(6.132905333507,1.021566655197));
#336 = CARTESIAN_POINT('',(6.121450322884,1.036898296593));
#337 = CARTESIAN_POINT('',(6.109328927541,1.052162403126));
#338 = CARTESIAN_POINT('',(6.096467297073,1.067351113203));
#339 = CARTESIAN_POINT('',(6.082779323086,1.082455187647));
#340 = CARTESIAN_POINT('',(6.068163311479,1.097463582285));
#341 = CARTESIAN_POINT('',(6.052497315411,1.112362797667));
#342 = CARTESIAN_POINT('',(6.019822954126,1.140985888628));
#343 = CARTESIAN_POINT('',(6.002959723437,1.15472501345));
#344 = CARTESIAN_POINT('',(5.984921017563,1.168339527351));
#345 = CARTESIAN_POINT('',(5.965564592281,1.181812882758));
#346 = CARTESIAN_POINT('',(5.944722758235,1.195125273595));
#347 = CARTESIAN_POINT('',(5.922196518983,1.208252560784));
#348 = CARTESIAN_POINT('',(5.897749467304,1.221164687184));
#349 = CARTESIAN_POINT('',(5.846118913952,1.245691295871));
#350 = CARTESIAN_POINT('',(5.819201962274,1.257336431989));
#351 = CARTESIAN_POINT('',(5.790120365539,1.268727635646));
#352 = CARTESIAN_POINT('',(5.758609931956,1.279827159424));
#353 = CARTESIAN_POINT('',(5.724373503812,1.290589643245));
#354 = CARTESIAN_POINT('',(5.687077741789,1.300959540446));
#355 = CARTESIAN_POINT('',(5.646371041271,1.31086878309));
#356 = CARTESIAN_POINT('',(5.560301272854,1.329018307844));
#357 = CARTESIAN_POINT('',(5.515388273666,1.337324194372));
#358 = CARTESIAN_POINT('',(5.466957447073,1.345087194147));
#359 = CARTESIAN_POINT('',(5.41479350406,1.352230482235));
#360 = CARTESIAN_POINT('',(5.358766821637,1.358667917014));
#361 = CARTESIAN_POINT('',(5.298909751356,1.364304795777));
#362 = CARTESIAN_POINT('',(5.235570417242,1.369049867953));
#363 = CARTESIAN_POINT('',(5.107327383101,1.376372754979));
#364 = CARTESIAN_POINT('',(5.042768778064,1.379067487128));
#365 = CARTESIAN_POINT('',(4.976226295245,1.380852830855));
#366 = CARTESIAN_POINT('',(4.908436465693,1.381681556263));
#367 = CARTESIAN_POINT('',(4.840352307029,1.381529007337));
#368 = CARTESIAN_POINT('',(4.772975778142,1.380404758021));
#369 = CARTESIAN_POINT('',(4.707135327266,1.378344766406));
#370 = CARTESIAN_POINT('',(4.583762260831,1.372643548981));
#371 = CARTESIAN_POINT('',(4.525967424071,1.369109211893));
#372 = CARTESIAN_POINT('',(4.470591242651,1.364842904775));
#373 = CARTESIAN_POINT('',(4.417990096074,1.359902025928));
#374 = CARTESIAN_POINT('',(4.368324289271,1.354349711905));
#375 = CARTESIAN_POINT('',(4.321604027673,1.348248279545));
#376 = CARTESIAN_POINT('',(4.277756577041,1.341655226904));
#377 = CARTESIAN_POINT('',(4.159587273854,1.321437469292));
#378 = CARTESIAN_POINT('',(4.092171220478,1.306707805992));
#379 = CARTESIAN_POINT('',(4.033570448614,1.290779133018));
#380 = CARTESIAN_POINT('',(3.98229488535,1.273928744248));
#381 = CARTESIAN_POINT('',(3.937116814079,1.256344839704));
#382 = CARTESIAN_POINT('',(3.897023047507,1.238171855598));
#383 = CARTESIAN_POINT('',(3.861199218664,1.219516152853));
#384 = CARTESIAN_POINT('',(3.800804954905,1.183786657545));
#385 = CARTESIAN_POINT('',(3.775387605349,1.166806629503));
#386 = CARTESIAN_POINT('',(3.752296821173,1.149575470032));
#387 = CARTESIAN_POINT('',(3.731185811808,1.132134179306));
#388 = CARTESIAN_POINT('',(3.711778226992,1.114514122734));
#389 = CARTESIAN_POINT('',(3.693850145723,1.096740236217));
#390 = CARTESIAN_POINT('',(3.677216898114,1.078832939468));
#391 = CARTESIAN_POINT('',(3.63461340876,1.02926643874));
#392 = CARTESIAN_POINT('',(3.610996511852,0.997366249988));
#393 = CARTESIAN_POINT('',(3.590050611508,0.965197189143));
#394 = CARTESIAN_POINT('',(3.571237642281,0.932815082669));
#395 = CARTESIAN_POINT('',(3.554169320432,0.900259711047));
#396 = CARTESIAN_POINT('',(3.538548927321,0.867561372649));
#397 = CARTESIAN_POINT('',(3.524149733126,0.834742792789));
#398 = CARTESIAN_POINT('',(3.49074876793,0.75244152296));
#399 = CARTESIAN_POINT('',(3.473045702473,0.702831387752));
#400 = CARTESIAN_POINT('',(3.45706696194,0.653053287548));
#401 = CARTESIAN_POINT('',(3.442434986069,0.60314434076));
#402 = CARTESIAN_POINT('',(3.428870688292,0.553131971432));
#403 = CARTESIAN_POINT('',(3.416166820016,0.503036369567));
#404 = CARTESIAN_POINT('',(3.40415773014,0.452873661433));
#405 = CARTESIAN_POINT('',(3.381259068635,0.352440217793));
#406 = CARTESIAN_POINT('',(3.370369470556,0.302169485328));
#407 = CARTESIAN_POINT('',(3.359904488089,0.251857847511));
#408 = CARTESIAN_POINT('',(3.349758580082,0.201515498356));
#409 = CARTESIAN_POINT('',(3.339842485262,0.15115104114));
#410 = CARTESIAN_POINT('',(3.330076272567,0.100772170429));
#411 = CARTESIAN_POINT('',(3.320385079434,5.0386084868E-02));
#412 = CARTESIAN_POINT('',(3.310693879591,-1.176070735051E-14));
#413 = ( GEOMETRIC_REPRESENTATION_CONTEXT(2) 
PARAMETRIC_REPRESENTATION_CONTEXT() REPRESENTATION_CONTEXT('2D SPACE',''
  ) );
#414 = ORIENTED_EDGE('',*,*,#415,.F.);
#415 = EDGE_CURVE('',#24,#304,#416,.T.);
#416 = SURFACE_CURVE('',#417,(#422,#429),.PCURVE_S1.);
#417 = CIRCLE('',#418,14.5);
#418 = AXIS2_PLACEMENT_3D('',#419,#420,#421);
#419 = CARTESIAN_POINT('',(-97.,-75.,104.));
#420 = DIRECTION('',(0.165267257627,-0.967993937532,-0.18887686586));
#421 = DIRECTION('',(3.469446951954E-18,0.19151035942,-0.981490592026));
#422 = PCURVE('',#33,#423);
#423 = DEFINITIONAL_REPRESENTATION('',(#424),#428);
#424 = LINE('',#425,#426);
#425 = CARTESIAN_POINT('',(0.,42.355637169095));
#426 = VECTOR('',#427,1.);
#427 = DIRECTION('',(1.,0.));
#428 = ( GEOMETRIC_REPRESENTATION_CONTEXT(2) 
PARAMETRIC_REPRESENTATION_CONTEXT() REPRESENTATION_CONTEXT('2D SPACE',''
  ) );
#429 = PCURVE('',#430,#435);
#430 = SPHERICAL_SURFACE('',#431,14.5);
#431 = AXIS2_PLACEMENT_3D('',#432,#433,#434);
#432 = CARTESIAN_POINT('',(-97.,-75.,104.));
#433 = DIRECTION('',(0.,0.,1.));
#434 = DIRECTION('',(1.,0.,-0.));
#435 = DEFINITIONAL_REPRESENTATION('',(#436),#451);
#436 = B_SPLINE_CURVE_WITH_KNOTS('',7,(#437,#438,#439,#440,#441,#442,
    #443,#444,#445,#446,#447,#448,#449,#450),.UNSPECIFIED.,.F.,.F.,(8,6,
    8),(1.538560227877,1.906051647584,2.27354306729),.UNSPECIFIED.);
#437 = CARTESIAN_POINT('',(0.169101226001,-1.666100207989E-14));
#438 = CARTESIAN_POINT('',(0.159185422061,5.155383719282E-02));
#439 = CARTESIAN_POINT('',(0.149269570731,0.103107669623));
#440 = CARTESIAN_POINT('',(0.139267852516,0.154653245239));
#441 = CARTESIAN_POINT('',(0.129093540141,0.206182220879));
#442 = CARTESIAN_POINT('',(0.118653955126,0.257685676613));
#443 = CARTESIAN_POINT('',(0.10784069902,0.309153157461));
#444 = CARTESIAN_POINT('',(8.5189619559E-02,0.411989327471));
#445 = CARTESIAN_POINT('',(7.335178757212E-02,0.463358016214));
#446 = CARTESIAN_POINT('',(6.086236317596E-02,0.514663814863));
#447 = CARTESIAN_POINT('',(4.755233248512E-02,0.565890329954));
#448 = CARTESIAN_POINT('',(3.319874925906E-02,0.617015797025));
#449 = CARTESIAN_POINT('',(1.750759133271E-02,0.668011504426));
#450 = CARTESIAN_POINT('',(6.511355937335E-15,0.718829999622));
#451 = ( GEOMETRIC_REPRESENTATION_CONTEXT(2) 
PARAMETRIC_REPRESENTATION_CONTEXT() REPRESENTATION_CONTEXT('2D SPACE',''
  ) );
#452 = ADVANCED_FACE('',(#453),#45,.T.);
#453 = FACE_BOUND('',#454,.T.);
#454 = EDGE_LOOP('',(#455,#456,#457));
#455 = ORIENTED_EDGE('',*,*,#279,.T.);
#456 = ORIENTED_EDGE('',*,*,#21,.T.);
#457 = ORIENTED_EDGE('',*,*,#458,.T.);
#458 = EDGE_CURVE('',#24,#280,#459,.T.);
#459 = SURFACE_CURVE('',#460,(#464,#470),.PCURVE_S1.);
#460 = LINE('',#461,#462);
#461 = CARTESIAN_POINT('',(-97.,-75.,104.));
#462 = VECTOR('',#463,1.);
#463 = DIRECTION('',(-0.98573642551,-0.168296462892,0.));
#464 = PCURVE('',#45,#465);
#465 = DEFINITIONAL_REPRESENTATION('',(#466),#469);
#466 = B_SPLINE_CURVE_WITH_KNOTS('',1,(#467,#468),.UNSPECIFIED.,.F.,.F.,
  (2,2),(-14.5075372175,14.507537217507),.PIECEWISE_BEZIER_KNOTS.);
#467 = CARTESIAN_POINT('',(0.467585411824,14.5));
#468 = CARTESIAN_POINT('',(-0.467585411824,-14.5));
#469 = ( GEOMETRIC_REPRESENTATION_CONTEXT(2) 
PARAMETRIC_REPRESENTATION_CONTEXT() REPRESENTATION_CONTEXT('2D SPACE',''
  ) );
#470 = PCURVE('',#471,#476);
#471 = PLANE('',#472);
#472 = AXIS2_PLACEMENT_3D('',#473,#474,#475);
#473 = CARTESIAN_POINT('',(-97.,-75.,104.));
#474 = DIRECTION('',(0.,0.,1.));
#475 = DIRECTION('',(1.,0.,-0.));
#476 = DEFINITIONAL_REPRESENTATION('',(#477),#480);
#477 = B_SPLINE_CURVE_WITH_KNOTS('',1,(#478,#479),.UNSPECIFIED.,.F.,.F.,
  (2,2),(-14.5075372175,14.507537217507),.PIECEWISE_BEZIER_KNOTS.);
#478 = CARTESIAN_POINT('',(14.300607879745,2.441567198981));
#479 = CARTESIAN_POINT('',(-14.30060787974,-2.441567198981));
#480 = ( GEOMETRIC_REPRESENTATION_CONTEXT(2) 
PARAMETRIC_REPRESENTATION_CONTEXT() REPRESENTATION_CONTEXT('2D SPACE',''
  ) );
#481 = ADVANCED_FACE('',(#482),#430,.T.);
#482 = FACE_BOUND('',#483,.T.);
#483 = EDGE_LOOP('',(#484,#485,#509));
#484 = ORIENTED_EDGE('',*,*,#415,.T.);
#485 = ORIENTED_EDGE('',*,*,#486,.F.);
#486 = EDGE_CURVE('',#487,#304,#489,.T.);
#487 = VERTEX_POINT('',#488);
#488 = CARTESIAN_POINT('',(-82.5,-75.,104.));
#489 = SURFACE_CURVE('',#490,(#495,#502),.PCURVE_S1.);
#490 = CIRCLE('',#491,14.5);
#491 = AXIS2_PLACEMENT_3D('',#492,#493,#494);
#492 = CARTESIAN_POINT('',(-97.,-75.,104.));
#493 = DIRECTION('',(-2.449293598295E-16,-1.,0.));
#494 = DIRECTION('',(1.,-2.449293598295E-16,0.));
#495 = PCURVE('',#430,#496);
#496 = DEFINITIONAL_REPRESENTATION('',(#497),#501);
#497 = LINE('',#498,#499);
#498 = CARTESIAN_POINT('',(0.,-6.28318530718));
#499 = VECTOR('',#500,1.);
#500 = DIRECTION('',(0.,1.));
#501 = ( GEOMETRIC_REPRESENTATION_CONTEXT(2) 
PARAMETRIC_REPRESENTATION_CONTEXT() REPRESENTATION_CONTEXT('2D SPACE',''
  ) );
#502 = PCURVE('',#320,#503);
#503 = DEFINITIONAL_REPRESENTATION('',(#504),#508);
#504 = LINE('',#505,#506);
#505 = CARTESIAN_POINT('',(6.28318530718,-6.28318530718));
#506 = VECTOR('',#507,1.);
#507 = DIRECTION('',(0.,1.));
#508 = ( GEOMETRIC_REPRESENTATION_CONTEXT(2) 
PARAMETRIC_REPRESENTATION_CONTEXT() REPRESENTATION_CONTEXT('2D SPACE',''
  ) );
#509 = ORIENTED_EDGE('',*,*,#510,.T.);
#510 = EDGE_CURVE('',#487,#24,#511,.T.);
#511 = SURFACE_CURVE('',#512,(#517,#524),.PCURVE_S1.);
#512 = CIRCLE('',#513,14.5);
#513 = AXIS2_PLACEMENT_3D('',#514,#515,#516);
#514 = CARTESIAN_POINT('',(-97.,-75.,104.));
#515 = DIRECTION('',(0.,0.,1.));
#516 = DIRECTION('',(1.,0.,-0.));
#517 = PCURVE('',#430,#518);
#518 = DEFINITIONAL_REPRESENTATION('',(#519),#523);
#519 = LINE('',#520,#521);
#520 = CARTESIAN_POINT('',(0.,0.));
#521 = VECTOR('',#522,1.);
#522 = DIRECTION('',(1.,0.));
#523 = ( GEOMETRIC_REPRESENTATION_CONTEXT(2) 
PARAMETRIC_REPRESENTATION_CONTEXT() REPRESENTATION_CONTEXT('2D SPACE',''
  ) );
#524 = PCURVE('',#471,#525);
#525 = DEFINITIONAL_REPRESENTATION('',(#526),#530);
#526 = CIRCLE('',#527,14.5);
#527 = AXIS2_PLACEMENT_2D('',#528,#529);
#528 = CARTESIAN_POINT('',(0.,0.));
#529 = DIRECTION('',(1.,0.));
#530 = ( GEOMETRIC_REPRESENTATION_CONTEXT(2) 
PARAMETRIC_REPRESENTATION_CONTEXT() REPRESENTATION_CONTEXT('2D SPACE',''
  ) );
#531 = ADVANCED_FACE('',(#532),#320,.T.);
#532 = FACE_BOUND('',#533,.T.);
#533 = EDGE_LOOP('',(#534,#535,#536));
#534 = ORIENTED_EDGE('',*,*,#486,.T.);
#535 = ORIENTED_EDGE('',*,*,#303,.T.);
#536 = ORIENTED_EDGE('',*,*,#537,.T.);
#537 = EDGE_CURVE('',#280,#487,#538,.T.);
#538 = SURFACE_CURVE('',#539,(#544,#551),.PCURVE_S1.);
#539 = CIRCLE('',#540,14.5);
#540 = AXIS2_PLACEMENT_3D('',#541,#542,#543);
#541 = CARTESIAN_POINT('',(-97.,-75.,104.));
#542 = DIRECTION('',(0.,0.,1.));
#543 = DIRECTION('',(1.,0.,-0.));
#544 = PCURVE('',#320,#545);
#545 = DEFINITIONAL_REPRESENTATION('',(#546),#550);
#546 = LINE('',#547,#548);
#547 = CARTESIAN_POINT('',(0.,0.));
#548 = VECTOR('',#549,1.);
#549 = DIRECTION('',(1.,0.));
#550 = ( GEOMETRIC_REPRESENTATION_CONTEXT(2) 
PARAMETRIC_REPRESENTATION_CONTEXT() REPRESENTATION_CONTEXT('2D SPACE',''
  ) );
#551 = PCURVE('',#471,#552);
#552 = DEFINITIONAL_REPRESENTATION('',(#553),#557);
#553 = CIRCLE('',#554,14.5);
#554 = AXIS2_PLACEMENT_2D('',#555,#556);
#555 = CARTESIAN_POINT('',(0.,0.));
#556 = DIRECTION('',(1.,0.));
#557 = ( GEOMETRIC_REPRESENTATION_CONTEXT(2) 
PARAMETRIC_REPRESENTATION_CONTEXT() REPRESENTATION_CONTEXT('2D SPACE',''
  ) );
#558 = ADVANCED_FACE('',(#559),#97,.F.);
#559 = FACE_BOUND('',#560,.F.);
#560 = EDGE_LOOP('',(#561,#562,#563));
#561 = ORIENTED_EDGE('',*,*,#256,.T.);
#562 = ORIENTED_EDGE('',*,*,#80,.T.);
#563 = ORIENTED_EDGE('',*,*,#564,.T.);
#564 = EDGE_CURVE('',#81,#150,#565,.T.);
#565 = SURFACE_CURVE('',#566,(#570,#576),.PCURVE_S1.);
#566 = LINE('',#567,#568);
#567 = CARTESIAN_POINT('',(-104.,-34.,112.));
#568 = VECTOR('',#569,1.);
#569 = DIRECTION('',(-0.98573642551,-0.168296462892,0.));
#570 = PCURVE('',#97,#571);
#571 = DEFINITIONAL_REPRESENTATION('',(#572),#575);
#572 = B_SPLINE_CURVE_WITH_KNOTS('',1,(#573,#574),.UNSPECIFIED.,.F.,.F.,
  (2,2),(-14.5075372175,14.507537217507),.PIECEWISE_BEZIER_KNOTS.);
#573 = CARTESIAN_POINT('',(0.467585411824,14.5));
#574 = CARTESIAN_POINT('',(-0.467585411824,-14.5));
#575 = ( GEOMETRIC_REPRESENTATION_CONTEXT(2) 
PARAMETRIC_REPRESENTATION_CONTEXT() REPRESENTATION_CONTEXT('2D SPACE',''
  ) );
#576 = PCURVE('',#577,#582);
#577 = PLANE('',#578);
#578 = AXIS2_PLACEMENT_3D('',#579,#580,#581);
#579 = CARTESIAN_POINT('',(-104.,-34.,112.));
#580 = DIRECTION('',(0.,0.,1.));
#581 = DIRECTION('',(1.,0.,-0.));
#582 = DEFINITIONAL_REPRESENTATION('',(#583),#586);
#583 = B_SPLINE_CURVE_WITH_KNOTS('',1,(#584,#585),.UNSPECIFIED.,.F.,.F.,
  (2,2),(-14.5075372175,14.507537217507),.PIECEWISE_BEZIER_KNOTS.);
#584 = CARTESIAN_POINT('',(14.300607879745,2.441567198981));
#585 = CARTESIAN_POINT('',(-14.30060787974,-2.441567198981));
#586 = ( GEOMETRIC_REPRESENTATION_CONTEXT(2) 
PARAMETRIC_REPRESENTATION_CONTEXT() REPRESENTATION_CONTEXT('2D SPACE',''
  ) );
#587 = ADVANCED_FACE('',(#588),#126,.T.);
#588 = FACE_BOUND('',#589,.T.);
#589 = EDGE_LOOP('',(#590,#614,#615,#616,#638));
#590 = ORIENTED_EDGE('',*,*,#591,.T.);
#591 = EDGE_CURVE('',#110,#592,#594,.T.);
#592 = VERTEX_POINT('',#593);
#593 = CARTESIAN_POINT('',(-104.,-34.,126.5));
#594 = SEAM_CURVE('',#595,(#600,#607),.PCURVE_S1.);
#595 = CIRCLE('',#596,14.5);
#596 = AXIS2_PLACEMENT_3D('',#597,#598,#599);
#597 = CARTESIAN_POINT('',(-104.,-34.,112.));
#598 = DIRECTION('',(-2.449293598295E-16,-1.,0.));
#599 = DIRECTION('',(1.,-2.449293598295E-16,0.));
#600 = PCURVE('',#126,#601);
#601 = DEFINITIONAL_REPRESENTATION('',(#602),#606);
#602 = LINE('',#603,#604);
#603 = CARTESIAN_POINT('',(6.28318530718,-6.28318530718));
#604 = VECTOR('',#605,1.);
#605 = DIRECTION('',(0.,1.));
#606 = ( GEOMETRIC_REPRESENTATION_CONTEXT(2) 
PARAMETRIC_REPRESENTATION_CONTEXT() REPRESENTATION_CONTEXT('2D SPACE',''
  ) );
#607 = PCURVE('',#126,#608);
#608 = DEFINITIONAL_REPRESENTATION('',(#609),#613);
#609 = LINE('',#610,#611);
#610 = CARTESIAN_POINT('',(0.,-6.28318530718));
#611 = VECTOR('',#612,1.);
#612 = DIRECTION('',(0.,1.));
#613 = ( GEOMETRIC_REPRESENTATION_CONTEXT(2) 
PARAMETRIC_REPRESENTATION_CONTEXT() REPRESENTATION_CONTEXT('2D SPACE',''
  ) );
#614 = ORIENTED_EDGE('',*,*,#591,.F.);
#615 = ORIENTED_EDGE('',*,*,#109,.F.);
#616 = ORIENTED_EDGE('',*,*,#617,.T.);
#617 = EDGE_CURVE('',#81,#150,#618,.T.);
#618 = SURFACE_CURVE('',#619,(#624,#631),.PCURVE_S1.);
#619 = CIRCLE('',#620,14.5);
#620 = AXIS2_PLACEMENT_3D('',#621,#622,#623);
#621 = CARTESIAN_POINT('',(-104.,-34.,112.));
#622 = DIRECTION('',(0.,0.,1.));
#623 = DIRECTION('',(1.,0.,-0.));
#624 = PCURVE('',#126,#625);
#625 = DEFINITIONAL_REPRESENTATION('',(#626),#630);
#626 = LINE('',#627,#628);
#627 = CARTESIAN_POINT('',(0.,0.));
#628 = VECTOR('',#629,1.);
#629 = DIRECTION('',(1.,0.));
#630 = ( GEOMETRIC_REPRESENTATION_CONTEXT(2) 
PARAMETRIC_REPRESENTATION_CONTEXT() REPRESENTATION_CONTEXT('2D SPACE',''
  ) );
#631 = PCURVE('',#577,#632);
#632 = DEFINITIONAL_REPRESENTATION('',(#633),#637);
#633 = CIRCLE('',#634,14.5);
#634 = AXIS2_PLACEMENT_2D('',#635,#636);
#635 = CARTESIAN_POINT('',(0.,0.));
#636 = DIRECTION('',(1.,0.));
#637 = ( GEOMETRIC_REPRESENTATION_CONTEXT(2) 
PARAMETRIC_REPRESENTATION_CONTEXT() REPRESENTATION_CONTEXT('2D SPACE',''
  ) );
#638 = ORIENTED_EDGE('',*,*,#149,.F.);
#639 = ADVANCED_FACE('',(#640),#471,.F.);
#640 = FACE_BOUND('',#641,.F.);
#641 = EDGE_LOOP('',(#642,#643,#644));
#642 = ORIENTED_EDGE('',*,*,#537,.T.);
#643 = ORIENTED_EDGE('',*,*,#510,.T.);
#644 = ORIENTED_EDGE('',*,*,#458,.T.);
#645 = ADVANCED_FACE('',(#646),#577,.F.);
#646 = FACE_BOUND('',#647,.F.);
#647 = EDGE_LOOP('',(#648,#649));
#648 = ORIENTED_EDGE('',*,*,#564,.F.);
#649 = ORIENTED_EDGE('',*,*,#617,.T.);
#650 = ( GEOMETRIC_REPRESENTATION_CONTEXT(3) 
GLOBAL_UNCERTAINTY_ASSIGNED_CONTEXT((#654)) GLOBAL_UNIT_ASSIGNED_CONTEXT
((#651,#652,#653)) REPRESENTATION_CONTEXT('Context #1',
  '3D Context with UNIT and UNCERTAINTY') );
#651 = ( LENGTH_UNIT() NAMED_UNIT(*) SI_UNIT(.MILLI.,.METRE.) );
#652 = ( NAMED_UNIT(*) PLANE_ANGLE_UNIT() SI_UNIT($,.RADIAN.) );
#653 = ( NAMED_UNIT(*) SI_UNIT($,.STERADIAN.) SOLID_ANGLE_UNIT() );
#654 = UNCERTAINTY_MEASURE_WITH_UNIT(LENGTH_MEASURE(1.E-07),#651,
  'distance_accuracy_value','confusion accuracy');
#655 = PRODUCT_RELATED_PRODUCT_CATEGORY('part',$,(#7));
ENDSEC;
END-ISO-10303-21;
