ISO-10303-21;
HEADER;
FILE_DESCRIPTION(('Open CASCADE Model'),'2;1');
FILE_NAME('Open CASCADE Shape Model','2026-08-23T11:27:53',('Author'),(
    'Open CASCADE'),'Open CASCADE STEP processor 7.9','Open CASCADE 7.9'
  ,'Unknown');
FILE_SCHEMA(('AUTOMOTIVE_DESIGN { 1 0 10303 214 1 1 1 1 }'));
ENDSEC;
DATA;
#1 = APPLICATION_PROTOCOL_DEFINITION('international standard',
  'automotive_design',2000,#2);
#2 = APPLICATION_CONTEXT(
  'core data for automotive mechanical design processes');
#3 = SHAPE_DEFINITION_REPRESENTATION(#4,#10);
#4 = PRODUCT_DEFINITION_SHAPE('','',#5);
#5 = PRODUCT_DEFINITION('design','',#6,#9);
#6 = PRODUCT_DEFINITION_FORMATION('','',#7);
#7 = PRODUCT('Open CASCADE STEP translator 7.9 43',
  'Open CASCADE STEP translator 7.9 43','',(#8));
#8 = PRODUCT_CONTEXT('',#2,'mechanical');
#9 = PRODUCT_DEFINITION_CONTEXT('part definition',#2,'design');
#10 = ADVANCED_BREP_SHAPE_REPRESENTATION('',(#11,#15),#461);
#11 = AXIS2_PLACEMENT_3D('',#12,#13,#14);
#12 = CARTESIAN_POINT('',(0.,0.,0.));
#13 = DIRECTION('',(0.,0.,1.));
#14 = DIRECTION('',(1.,0.,-0.));
#15 = MANIFOLD_SOLID_BREP('',#16);
#16 = CLOSED_SHELL('',(#17,#291,#323,#346,#427,#450,#455));
#17 = ADVANCED_FACE('',(#18),#33,.T.);
#18 = FACE_BOUND('',#19,.T.);
#19 = EDGE_LOOP('',(#20,#83,#106,#162,#191,#226,#227,#264));
#20 = ORIENTED_EDGE('',*,*,#21,.F.);
#21 = EDGE_CURVE('',#22,#24,#26,.T.);
#22 = VERTEX_POINT('',#23);
#23 = CARTESIAN_POINT('',(-104.,-46.3291916605,121.39366983657));
#24 = VERTEX_POINT('',#25);
#25 = CARTESIAN_POINT('',(-118.3602319453,-28.16615577218,112.));
#26 = SURFACE_CURVE('',#27,(#32,#44),.PCURVE_S1.);
#27 = CIRCLE('',#28,15.5);
#28 = AXIS2_PLACEMENT_3D('',#29,#30,#31);
#29 = CARTESIAN_POINT('',(-104.,-34.,112.));
#30 = DIRECTION('',(-0.239065931168,-0.588469984414,-0.772366854544));
#31 = DIRECTION('',(-1.387778780781E-17,-0.795431720032,0.606043215263)
  );
#32 = PCURVE('',#33,#38);
#33 = CYLINDRICAL_SURFACE('',#34,15.5);
#34 = AXIS2_PLACEMENT_3D('',#35,#36,#37);
#35 = CARTESIAN_POINT('',(-91.,-2.,154.));
#36 = DIRECTION('',(-0.239065931168,-0.588469984414,-0.772366854544));
#37 = DIRECTION('',(-1.387778780781E-17,-0.795431720032,0.606043215263)
  );
#38 = DEFINITIONAL_REPRESENTATION('',(#39),#43);
#39 = LINE('',#40,#41);
#40 = CARTESIAN_POINT('',(0.,54.37830449729));
#41 = VECTOR('',#42,1.);
#42 = DIRECTION('',(1.,0.));
#43 = ( GEOMETRIC_REPRESENTATION_CONTEXT(2) 
PARAMETRIC_REPRESENTATION_CONTEXT() REPRESENTATION_CONTEXT('2D SPACE',''
  ) );
#44 = PCURVE('',#45,#50);
#45 = SPHERICAL_SURFACE('',#46,15.5);
#46 = AXIS2_PLACEMENT_3D('',#47,#48,#49);
#47 = CARTESIAN_POINT('',(-104.,-34.,112.));
#48 = DIRECTION('',(0.,0.,1.));
#49 = DIRECTION('',(1.,0.,-0.));
#50 = DEFINITIONAL_REPRESENTATION('',(#51),#82);
#51 = B_SPLINE_CURVE_WITH_KNOTS('',8,(#52,#53,#54,#55,#56,#57,#58,#59,
    #60,#61,#62,#63,#64,#65,#66,#67,#68,#69,#70,#71,#72,#73,#74,#75,#76,
    #77,#78,#79,#80,#81),.UNSPECIFIED.,.F.,.F.,(9,7,7,7,9),(0.,
    0.468710365046,0.82024313883,1.347542299507,1.874841460183),
  .UNSPECIFIED.);
#52 = CARTESIAN_POINT('',(4.712388980385,0.651076721444));
#53 = CARTESIAN_POINT('',(4.640868176476,0.665083306428));
#54 = CARTESIAN_POINT('',(4.567602782821,0.676271752527));
#55 = CARTESIAN_POINT('',(4.492885288722,0.684452634817));
#56 = CARTESIAN_POINT('',(4.41712829165,0.689472499791));
#57 = CARTESIAN_POINT('',(4.340860497399,0.691233940872));
#58 = CARTESIAN_POINT('',(4.264669064913,0.689720283847));
#59 = CARTESIAN_POINT('',(4.189095118388,0.684990723539));
#60 = CARTESIAN_POINT('',(4.058716135443,0.6712929381));
#61 = CARTESIAN_POINT('',(4.003442237983,0.663679981955));
#62 = CARTESIAN_POINT('',(3.948962563439,0.654374388545));
#63 = CARTESIAN_POINT('',(3.895440891796,0.643444777473));
#64 = CARTESIAN_POINT('',(3.843001106594,0.630974431887));
#65 = CARTESIAN_POINT('',(3.791725246771,0.617055678909));
#66 = CARTESIAN_POINT('',(3.741657961054,0.601784613538));
#67 = CARTESIAN_POINT('',(3.61954668987,0.560468110691));
#68 = CARTESIAN_POINT('',(3.549031044756,0.53285324751));
#69 = CARTESIAN_POINT('',(3.481315068211,0.502739935887));
#70 = CARTESIAN_POINT('',(3.416288970073,0.470457787961));
#71 = CARTESIAN_POINT('',(3.353744067215,0.436313083803));
#72 = CARTESIAN_POINT('',(3.293423076926,0.400581733711));
#73 = CARTESIAN_POINT('',(3.235052949963,0.363512356134));
#74 = CARTESIAN_POINT('',(3.121650925606,0.287148030594));
#75 = CARTESIAN_POINT('',(3.066619128143,0.247853081276));
#76 = CARTESIAN_POINT('',(3.012975311122,0.207670658686));
#77 = CARTESIAN_POINT('',(2.960431988837,0.166802697749));
#78 = CARTESIAN_POINT('',(2.908707539427,0.125432730451));
#79 = CARTESIAN_POINT('',(2.857527091952,8.373203094428E-02));
#80 = CARTESIAN_POINT('',(2.806618533459,4.186601769124E-02));
#81 = CARTESIAN_POINT('',(2.755709984192,1.466926938343E-14));
#82 = ( GEOMETRIC_REPRESENTATION_CONTEXT(2) 
PARAMETRIC_REPRESENTATION_CONTEXT() REPRESENTATION_CONTEXT('2D SPACE',''
  ) );
#83 = ORIENTED_EDGE('',*,*,#84,.F.);
#84 = EDGE_CURVE('',#85,#22,#87,.T.);
#85 = VERTEX_POINT('',#86);
#86 = CARTESIAN_POINT('',(-91.,-14.3291916605,163.39366983657));
#87 = SEAM_CURVE('',#88,(#92,#99),.PCURVE_S1.);
#88 = LINE('',#89,#90);
#89 = CARTESIAN_POINT('',(-91.,-14.3291916605,163.39366983657));
#90 = VECTOR('',#91,1.);
#91 = DIRECTION('',(-0.239065931168,-0.588469984414,-0.772366854544));
#92 = PCURVE('',#33,#93);
#93 = DEFINITIONAL_REPRESENTATION('',(#94),#98);
#94 = LINE('',#95,#96);
#95 = CARTESIAN_POINT('',(6.28318530718,-0.));
#96 = VECTOR('',#97,1.);
#97 = DIRECTION('',(0.,1.));
#98 = ( GEOMETRIC_REPRESENTATION_CONTEXT(2) 
PARAMETRIC_REPRESENTATION_CONTEXT() REPRESENTATION_CONTEXT('2D SPACE',''
  ) );
#99 = PCURVE('',#33,#100);
#100 = DEFINITIONAL_REPRESENTATION('',(#101),#105);
#101 = LINE('',#102,#103);
#102 = CARTESIAN_POINT('',(0.,-0.));
#103 = VECTOR('',#104,1.);
#104 = DIRECTION('',(0.,1.));
#105 = ( GEOMETRIC_REPRESENTATION_CONTEXT(2) 
PARAMETRIC_REPRESENTATION_CONTEXT() REPRESENTATION_CONTEXT('2D SPACE',''
  ) );
#106 = ORIENTED_EDGE('',*,*,#107,.T.);
#107 = EDGE_CURVE('',#85,#108,#110,.T.);
#108 = VERTEX_POINT('',#109);
#109 = CARTESIAN_POINT('',(-105.3602319453,3.833844227817,154.));
#110 = SURFACE_CURVE('',#111,(#116,#123),.PCURVE_S1.);
#111 = CIRCLE('',#112,15.5);
#112 = AXIS2_PLACEMENT_3D('',#113,#114,#115);
#113 = CARTESIAN_POINT('',(-91.,-2.,154.));
#114 = DIRECTION('',(-0.239065931168,-0.588469984414,-0.772366854544));
#115 = DIRECTION('',(-1.387778780781E-17,-0.795431720032,0.606043215263)
  );
#116 = PCURVE('',#33,#117);
#117 = DEFINITIONAL_REPRESENTATION('',(#118),#122);
#118 = LINE('',#119,#120);
#119 = CARTESIAN_POINT('',(0.,0.));
#120 = VECTOR('',#121,1.);
#121 = DIRECTION('',(1.,0.));
#122 = ( GEOMETRIC_REPRESENTATION_CONTEXT(2) 
PARAMETRIC_REPRESENTATION_CONTEXT() REPRESENTATION_CONTEXT('2D SPACE',''
  ) );
#123 = PCURVE('',#124,#129);
#124 = SPHERICAL_SURFACE('',#125,15.5);
#125 = AXIS2_PLACEMENT_3D('',#126,#127,#128);
#126 = CARTESIAN_POINT('',(-91.,-2.,154.));
#127 = DIRECTION('',(0.,0.,1.));
#128 = DIRECTION('',(1.,0.,-0.));
#129 = DEFINITIONAL_REPRESENTATION('',(#130),#161);
#130 = B_SPLINE_CURVE_WITH_KNOTS('',8,(#131,#132,#133,#134,#135,#136,
    #137,#138,#139,#140,#141,#142,#143,#144,#145,#146,#147,#148,#149,
    #150,#151,#152,#153,#154,#155,#156,#157,#158,#159,#160),
  .UNSPECIFIED.,.F.,.F.,(9,7,7,7,9),(0.,0.468710365046,0.82024313883,
    1.347542299507,1.874841460183),.UNSPECIFIED.);
#131 = CARTESIAN_POINT('',(4.712388980385,0.651076721444));
#132 = CARTESIAN_POINT('',(4.640868176476,0.665083306428));
#133 = CARTESIAN_POINT('',(4.567602782821,0.676271752528));
#134 = CARTESIAN_POINT('',(4.492885288722,0.684452634812));
#135 = CARTESIAN_POINT('',(4.41712829165,0.689472499796));
#136 = CARTESIAN_POINT('',(4.340860497399,0.691233940868));
#137 = CARTESIAN_POINT('',(4.264669064913,0.689720283848));
#138 = CARTESIAN_POINT('',(4.189095118388,0.684990723539));
#139 = CARTESIAN_POINT('',(4.058716135443,0.6712929381));
#140 = CARTESIAN_POINT('',(4.003442237983,0.663679981955));
#141 = CARTESIAN_POINT('',(3.948962563439,0.654374388545));
#142 = CARTESIAN_POINT('',(3.895440891795,0.643444777473));
#143 = CARTESIAN_POINT('',(3.843001106593,0.630974431887));
#144 = CARTESIAN_POINT('',(3.791725246771,0.617055678909));
#145 = CARTESIAN_POINT('',(3.741657961054,0.601784613538));
#146 = CARTESIAN_POINT('',(3.61954668987,0.560468110691));
#147 = CARTESIAN_POINT('',(3.549031044756,0.53285324751));
#148 = CARTESIAN_POINT('',(3.481315068211,0.502739935887));
#149 = CARTESIAN_POINT('',(3.416288970072,0.470457787961));
#150 = CARTESIAN_POINT('',(3.353744067215,0.436313083803));
#151 = CARTESIAN_POINT('',(3.293423076926,0.400581733711));
#152 = CARTESIAN_POINT('',(3.235052949963,0.363512356134));
#153 = CARTESIAN_POINT('',(3.121650925606,0.287148030594));
#154 = CARTESIAN_POINT('',(3.066619128143,0.247853081276));
#155 = CARTESIAN_POINT('',(3.012975311123,0.207670658686));
#156 = CARTESIAN_POINT('',(2.960431988838,0.166802697749));
#157 = CARTESIAN_POINT('',(2.908707539427,0.125432730451));
#158 = CARTESIAN_POINT('',(2.857527091953,8.373203094429E-02));
#159 = CARTESIAN_POINT('',(2.806618533459,4.186601769124E-02));
#160 = CARTESIAN_POINT('',(2.755709984192,1.466926938343E-14));
#161 = ( GEOMETRIC_REPRESENTATION_CONTEXT(2) 
PARAMETRIC_REPRESENTATION_CONTEXT() REPRESENTATION_CONTEXT('2D SPACE',''
  ) );
#162 = ORIENTED_EDGE('',*,*,#163,.T.);
#163 = EDGE_CURVE('',#108,#164,#166,.T.);
#164 = VERTEX_POINT('',#165);
#165 = CARTESIAN_POINT('',(-76.6397680546,-7.833844227818,154.));
#166 = SURFACE_CURVE('',#167,(#172,#179),.PCURVE_S1.);
#167 = CIRCLE('',#168,15.5);
#168 = AXIS2_PLACEMENT_3D('',#169,#170,#171);
#169 = CARTESIAN_POINT('',(-91.,-2.,154.));
#170 = DIRECTION('',(-0.239065931168,-0.588469984414,-0.772366854544));
#171 = DIRECTION('',(-1.387778780781E-17,-0.795431720032,0.606043215263)
  );
#172 = PCURVE('',#33,#173);
#173 = DEFINITIONAL_REPRESENTATION('',(#174),#178);
#174 = LINE('',#175,#176);
#175 = CARTESIAN_POINT('',(0.,0.));
#176 = VECTOR('',#177,1.);
#177 = DIRECTION('',(1.,0.));
#178 = ( GEOMETRIC_REPRESENTATION_CONTEXT(2) 
PARAMETRIC_REPRESENTATION_CONTEXT() REPRESENTATION_CONTEXT('2D SPACE',''
  ) );
#179 = PCURVE('',#180,#185);
#180 = PLANE('',#181);
#181 = AXIS2_PLACEMENT_3D('',#182,#183,#184);
#182 = CARTESIAN_POINT('',(-91.,-2.,154.));
#183 = DIRECTION('',(-0.239065931168,-0.588469984414,-0.772366854544));
#184 = DIRECTION('',(-1.387778780781E-17,-0.795431720032,0.606043215263)
  );
#185 = DEFINITIONAL_REPRESENTATION('',(#186),#190);
#186 = CIRCLE('',#187,15.5);
#187 = AXIS2_PLACEMENT_2D('',#188,#189);
#188 = CARTESIAN_POINT('',(0.,0.));
#189 = DIRECTION('',(1.,0.));
#190 = ( GEOMETRIC_REPRESENTATION_CONTEXT(2) 
PARAMETRIC_REPRESENTATION_CONTEXT() REPRESENTATION_CONTEXT('2D SPACE',''
  ) );
#191 = ORIENTED_EDGE('',*,*,#192,.T.);
#192 = EDGE_CURVE('',#164,#85,#193,.T.);
#193 = SURFACE_CURVE('',#194,(#199,#206),.PCURVE_S1.);
#194 = CIRCLE('',#195,15.5);
#195 = AXIS2_PLACEMENT_3D('',#196,#197,#198);
#196 = CARTESIAN_POINT('',(-91.,-2.,154.));
#197 = DIRECTION('',(-0.239065931168,-0.588469984414,-0.772366854544));
#198 = DIRECTION('',(-1.387778780781E-17,-0.795431720032,0.606043215263)
  );
#199 = PCURVE('',#33,#200);
#200 = DEFINITIONAL_REPRESENTATION('',(#201),#205);
#201 = LINE('',#202,#203);
#202 = CARTESIAN_POINT('',(0.,0.));
#203 = VECTOR('',#204,1.);
#204 = DIRECTION('',(1.,0.));
#205 = ( GEOMETRIC_REPRESENTATION_CONTEXT(2) 
PARAMETRIC_REPRESENTATION_CONTEXT() REPRESENTATION_CONTEXT('2D SPACE',''
  ) );
#206 = PCURVE('',#124,#207);
#207 = DEFINITIONAL_REPRESENTATION('',(#208),#225);
#208 = B_SPLINE_CURVE_WITH_KNOTS('',8,(#209,#210,#211,#212,#213,#214,
    #215,#216,#217,#218,#219,#220,#221,#222,#223,#224),.UNSPECIFIED.,.F.
  ,.F.,(9,7,9),(5.016434113773,5.649809710476,6.28318530718),
  .UNSPECIFIED.);
#209 = CARTESIAN_POINT('',(5.897302637781,3.11721974398E-14));
#210 = CARTESIAN_POINT('',(5.83615284811,5.028817778272E-02));
#211 = CARTESIAN_POINT('',(5.775003014951,0.100576330798));
#212 = CARTESIAN_POINT('',(5.713382139721,0.150578080425));
#213 = CARTESIAN_POINT('',(5.650818109197,0.200006441011));
#214 = CARTESIAN_POINT('',(5.586832907097,0.248560367674));
#215 = CARTESIAN_POINT('',(5.520930660746,0.295907684515));
#216 = CARTESIAN_POINT('',(5.452604727757,0.34166965664));
#217 = CARTESIAN_POINT('',(5.310175327566,0.429155282183));
#218 = CARTESIAN_POINT('',(5.236071887693,0.470878932285));
#219 = CARTESIAN_POINT('',(5.158615121361,0.510150119693));
#220 = CARTESIAN_POINT('',(5.077381959305,0.546479798398));
#221 = CARTESIAN_POINT('',(4.992052430065,0.579323600382));
#222 = CARTESIAN_POINT('',(4.902497640271,0.608076043547));
#223 = CARTESIAN_POINT('',(4.809036153629,0.632149405594));
#224 = CARTESIAN_POINT('',(4.712388980385,0.651076721444));
#225 = ( GEOMETRIC_REPRESENTATION_CONTEXT(2) 
PARAMETRIC_REPRESENTATION_CONTEXT() REPRESENTATION_CONTEXT('2D SPACE',''
  ) );
#226 = ORIENTED_EDGE('',*,*,#84,.T.);
#227 = ORIENTED_EDGE('',*,*,#228,.F.);
#228 = EDGE_CURVE('',#229,#22,#231,.T.);
#229 = VERTEX_POINT('',#230);
#230 = CARTESIAN_POINT('',(-89.6397680546,-39.83384422781,112.));
#231 = SURFACE_CURVE('',#232,(#237,#244),.PCURVE_S1.);
#232 = CIRCLE('',#233,15.5);
#233 = AXIS2_PLACEMENT_3D('',#234,#235,#236);
#234 = CARTESIAN_POINT('',(-104.,-34.,112.));
#235 = DIRECTION('',(-0.239065931168,-0.588469984414,-0.772366854544));
#236 = DIRECTION('',(-1.387778780781E-17,-0.795431720032,0.606043215263)
  );
#237 = PCURVE('',#33,#238);
#238 = DEFINITIONAL_REPRESENTATION('',(#239),#243);
#239 = LINE('',#240,#241);
#240 = CARTESIAN_POINT('',(0.,54.37830449729));
#241 = VECTOR('',#242,1.);
#242 = DIRECTION('',(1.,0.));
#243 = ( GEOMETRIC_REPRESENTATION_CONTEXT(2) 
PARAMETRIC_REPRESENTATION_CONTEXT() REPRESENTATION_CONTEXT('2D SPACE',''
  ) );
#244 = PCURVE('',#45,#245);
#245 = DEFINITIONAL_REPRESENTATION('',(#246),#263);
#246 = B_SPLINE_CURVE_WITH_KNOTS('',8,(#247,#248,#249,#250,#251,#252,
    #253,#254,#255,#256,#257,#258,#259,#260,#261,#262),.UNSPECIFIED.,.F.
  ,.F.,(9,7,9),(5.016434113773,5.649809710476,6.28318530718),
  .UNSPECIFIED.);
#247 = CARTESIAN_POINT('',(5.897302637781,3.11721974398E-14));
#248 = CARTESIAN_POINT('',(5.83615284811,5.028817778272E-02));
#249 = CARTESIAN_POINT('',(5.77500301495,0.100576330798));
#250 = CARTESIAN_POINT('',(5.713382139721,0.150578080426));
#251 = CARTESIAN_POINT('',(5.650818109198,0.200006441011));
#252 = CARTESIAN_POINT('',(5.586832907097,0.248560367674));
#253 = CARTESIAN_POINT('',(5.520930660746,0.295907684515));
#254 = CARTESIAN_POINT('',(5.452604727757,0.34166965664));
#255 = CARTESIAN_POINT('',(5.310175327566,0.429155282183));
#256 = CARTESIAN_POINT('',(5.236071887685,0.470878932285));
#257 = CARTESIAN_POINT('',(5.158615121405,0.510150119695));
#258 = CARTESIAN_POINT('',(5.077381959276,0.546479798397));
#259 = CARTESIAN_POINT('',(4.992052430109,0.579323600383));
#260 = CARTESIAN_POINT('',(4.90249764026,0.608076043547));
#261 = CARTESIAN_POINT('',(4.809036153629,0.632149405594));
#262 = CARTESIAN_POINT('',(4.712388980385,0.651076721444));
#263 = ( GEOMETRIC_REPRESENTATION_CONTEXT(2) 
PARAMETRIC_REPRESENTATION_CONTEXT() REPRESENTATION_CONTEXT('2D SPACE',''
  ) );
#264 = ORIENTED_EDGE('',*,*,#265,.F.);
#265 = EDGE_CURVE('',#24,#229,#266,.T.);
#266 = SURFACE_CURVE('',#267,(#272,#279),.PCURVE_S1.);
#267 = CIRCLE('',#268,15.5);
#268 = AXIS2_PLACEMENT_3D('',#269,#270,#271);
#269 = CARTESIAN_POINT('',(-104.,-34.,112.));
#270 = DIRECTION('',(-0.239065931168,-0.588469984414,-0.772366854544));
#271 = DIRECTION('',(-1.387778780781E-17,-0.795431720032,0.606043215263)
  );
#272 = PCURVE('',#33,#273);
#273 = DEFINITIONAL_REPRESENTATION('',(#274),#278);
#274 = LINE('',#275,#276);
#275 = CARTESIAN_POINT('',(0.,54.37830449729));
#276 = VECTOR('',#277,1.);
#277 = DIRECTION('',(1.,0.));
#278 = ( GEOMETRIC_REPRESENTATION_CONTEXT(2) 
PARAMETRIC_REPRESENTATION_CONTEXT() REPRESENTATION_CONTEXT('2D SPACE',''
  ) );
#279 = PCURVE('',#280,#285);
#280 = PLANE('',#281);
#281 = AXIS2_PLACEMENT_3D('',#282,#283,#284);
#282 = CARTESIAN_POINT('',(-104.,-34.,112.));
#283 = DIRECTION('',(-0.239065931168,-0.588469984414,-0.772366854544));
#284 = DIRECTION('',(-1.387778780781E-17,-0.795431720032,0.606043215263)
  );
#285 = DEFINITIONAL_REPRESENTATION('',(#286),#290);
#286 = CIRCLE('',#287,15.5);
#287 = AXIS2_PLACEMENT_2D('',#288,#289);
#288 = CARTESIAN_POINT('',(0.,0.));
#289 = DIRECTION('',(1.,0.));
#290 = ( GEOMETRIC_REPRESENTATION_CONTEXT(2) 
PARAMETRIC_REPRESENTATION_CONTEXT() REPRESENTATION_CONTEXT('2D SPACE',''
  ) );
#291 = ADVANCED_FACE('',(#292),#45,.T.);
#292 = FACE_BOUND('',#293,.T.);
#293 = EDGE_LOOP('',(#294,#295,#322));
#294 = ORIENTED_EDGE('',*,*,#21,.T.);
#295 = ORIENTED_EDGE('',*,*,#296,.T.);
#296 = EDGE_CURVE('',#24,#229,#297,.T.);
#297 = SURFACE_CURVE('',#298,(#303,#310),.PCURVE_S1.);
#298 = CIRCLE('',#299,15.5);
#299 = AXIS2_PLACEMENT_3D('',#300,#301,#302);
#300 = CARTESIAN_POINT('',(-104.,-34.,112.));
#301 = DIRECTION('',(0.,0.,1.));
#302 = DIRECTION('',(1.,0.,-0.));
#303 = PCURVE('',#45,#304);
#304 = DEFINITIONAL_REPRESENTATION('',(#305),#309);
#305 = LINE('',#306,#307);
#306 = CARTESIAN_POINT('',(0.,0.));
#307 = VECTOR('',#308,1.);
#308 = DIRECTION('',(1.,0.));
#309 = ( GEOMETRIC_REPRESENTATION_CONTEXT(2) 
PARAMETRIC_REPRESENTATION_CONTEXT() REPRESENTATION_CONTEXT('2D SPACE',''
  ) );
#310 = PCURVE('',#311,#316);
#311 = PLANE('',#312);
#312 = AXIS2_PLACEMENT_3D('',#313,#314,#315);
#313 = CARTESIAN_POINT('',(-104.,-34.,112.));
#314 = DIRECTION('',(0.,0.,1.));
#315 = DIRECTION('',(1.,0.,-0.));
#316 = DEFINITIONAL_REPRESENTATION('',(#317),#321);
#317 = CIRCLE('',#318,15.5);
#318 = AXIS2_PLACEMENT_2D('',#319,#320);
#319 = CARTESIAN_POINT('',(0.,0.));
#320 = DIRECTION('',(1.,0.));
#321 = ( GEOMETRIC_REPRESENTATION_CONTEXT(2) 
PARAMETRIC_REPRESENTATION_CONTEXT() REPRESENTATION_CONTEXT('2D SPACE',''
  ) );
#322 = ORIENTED_EDGE('',*,*,#228,.T.);
#323 = ADVANCED_FACE('',(#324),#280,.T.);
#324 = FACE_BOUND('',#325,.T.);
#325 = EDGE_LOOP('',(#326,#345));
#326 = ORIENTED_EDGE('',*,*,#327,.T.);
#327 = EDGE_CURVE('',#229,#24,#328,.T.);
#328 = SURFACE_CURVE('',#329,(#333,#339),.PCURVE_S1.);
#329 = LINE('',#330,#331);
#330 = CARTESIAN_POINT('',(-104.,-34.,112.));
#331 = VECTOR('',#332,1.);
#332 = DIRECTION('',(-0.926466577122,0.376377046956,0.));
#333 = PCURVE('',#280,#334);
#334 = DEFINITIONAL_REPRESENTATION('',(#335),#338);
#335 = B_SPLINE_CURVE_WITH_KNOTS('',1,(#336,#337),.UNSPECIFIED.,.F.,.F.,
  (2,2),(-16.24511028877,16.245110288773),.PIECEWISE_BEZIER_KNOTS.);
#336 = CARTESIAN_POINT('',(4.863497537206,-15.5));
#337 = CARTESIAN_POINT('',(-4.863497537206,15.5));
#338 = ( GEOMETRIC_REPRESENTATION_CONTEXT(2) 
PARAMETRIC_REPRESENTATION_CONTEXT() REPRESENTATION_CONTEXT('2D SPACE',''
  ) );
#339 = PCURVE('',#311,#340);
#340 = DEFINITIONAL_REPRESENTATION('',(#341),#344);
#341 = B_SPLINE_CURVE_WITH_KNOTS('',1,(#342,#343),.UNSPECIFIED.,.F.,.F.,
  (2,2),(-16.24511028877,16.245110288773),.PIECEWISE_BEZIER_KNOTS.);
#342 = CARTESIAN_POINT('',(15.050551724214,-6.114286637962));
#343 = CARTESIAN_POINT('',(-15.05055172421,6.114286637962));
#344 = ( GEOMETRIC_REPRESENTATION_CONTEXT(2) 
PARAMETRIC_REPRESENTATION_CONTEXT() REPRESENTATION_CONTEXT('2D SPACE',''
  ) );
#345 = ORIENTED_EDGE('',*,*,#265,.T.);
#346 = ADVANCED_FACE('',(#347),#124,.T.);
#347 = FACE_BOUND('',#348,.T.);
#348 = EDGE_LOOP('',(#349,#375,#376,#403,#404,#405));
#349 = ORIENTED_EDGE('',*,*,#350,.T.);
#350 = EDGE_CURVE('',#351,#353,#355,.T.);
#351 = VERTEX_POINT('',#352);
#352 = CARTESIAN_POINT('',(-75.5,-2.,154.));
#353 = VERTEX_POINT('',#354);
#354 = CARTESIAN_POINT('',(-91.,-2.,169.5));
#355 = SEAM_CURVE('',#356,(#361,#368),.PCURVE_S1.);
#356 = CIRCLE('',#357,15.5);
#357 = AXIS2_PLACEMENT_3D('',#358,#359,#360);
#358 = CARTESIAN_POINT('',(-91.,-2.,154.));
#359 = DIRECTION('',(-2.449293598295E-16,-1.,0.));
#360 = DIRECTION('',(1.,-2.449293598295E-16,0.));
#361 = PCURVE('',#124,#362);
#362 = DEFINITIONAL_REPRESENTATION('',(#363),#367);
#363 = LINE('',#364,#365);
#364 = CARTESIAN_POINT('',(6.28318530718,-6.28318530718));
#365 = VECTOR('',#366,1.);
#366 = DIRECTION('',(0.,1.));
#367 = ( GEOMETRIC_REPRESENTATION_CONTEXT(2) 
PARAMETRIC_REPRESENTATION_CONTEXT() REPRESENTATION_CONTEXT('2D SPACE',''
  ) );
#368 = PCURVE('',#124,#369);
#369 = DEFINITIONAL_REPRESENTATION('',(#370),#374);
#370 = LINE('',#371,#372);
#371 = CARTESIAN_POINT('',(0.,-6.28318530718));
#372 = VECTOR('',#373,1.);
#373 = DIRECTION('',(0.,1.));
#374 = ( GEOMETRIC_REPRESENTATION_CONTEXT(2) 
PARAMETRIC_REPRESENTATION_CONTEXT() REPRESENTATION_CONTEXT('2D SPACE',''
  ) );
#375 = ORIENTED_EDGE('',*,*,#350,.F.);
#376 = ORIENTED_EDGE('',*,*,#377,.T.);
#377 = EDGE_CURVE('',#351,#108,#378,.T.);
#378 = SURFACE_CURVE('',#379,(#384,#391),.PCURVE_S1.);
#379 = CIRCLE('',#380,15.5);
#380 = AXIS2_PLACEMENT_3D('',#381,#382,#383);
#381 = CARTESIAN_POINT('',(-91.,-2.,154.));
#382 = DIRECTION('',(0.,0.,1.));
#383 = DIRECTION('',(1.,0.,-0.));
#384 = PCURVE('',#124,#385);
#385 = DEFINITIONAL_REPRESENTATION('',(#386),#390);
#386 = LINE('',#387,#388);
#387 = CARTESIAN_POINT('',(0.,0.));
#388 = VECTOR('',#389,1.);
#389 = DIRECTION('',(1.,0.));
#390 = ( GEOMETRIC_REPRESENTATION_CONTEXT(2) 
PARAMETRIC_REPRESENTATION_CONTEXT() REPRESENTATION_CONTEXT('2D SPACE',''
  ) );
#391 = PCURVE('',#392,#397);
#392 = PLANE('',#393);
#393 = AXIS2_PLACEMENT_3D('',#394,#395,#396);
#394 = CARTESIAN_POINT('',(-91.,-2.,154.));
#395 = DIRECTION('',(0.,0.,1.));
#396 = DIRECTION('',(1.,0.,-0.));
#397 = DEFINITIONAL_REPRESENTATION('',(#398),#402);
#398 = CIRCLE('',#399,15.5);
#399 = AXIS2_PLACEMENT_2D('',#400,#401);
#400 = CARTESIAN_POINT('',(0.,0.));
#401 = DIRECTION('',(1.,0.));
#402 = ( GEOMETRIC_REPRESENTATION_CONTEXT(2) 
PARAMETRIC_REPRESENTATION_CONTEXT() REPRESENTATION_CONTEXT('2D SPACE',''
  ) );
#403 = ORIENTED_EDGE('',*,*,#107,.F.);
#404 = ORIENTED_EDGE('',*,*,#192,.F.);
#405 = ORIENTED_EDGE('',*,*,#406,.T.);
#406 = EDGE_CURVE('',#164,#351,#407,.T.);
#407 = SURFACE_CURVE('',#408,(#413,#420),.PCURVE_S1.);
#408 = CIRCLE('',#409,15.5);
#409 = AXIS2_PLACEMENT_3D('',#410,#411,#412);
#410 = CARTESIAN_POINT('',(-91.,-2.,154.));
#411 = DIRECTION('',(0.,0.,1.));
#412 = DIRECTION('',(1.,0.,-0.));
#413 = PCURVE('',#124,#414);
#414 = DEFINITIONAL_REPRESENTATION('',(#415),#419);
#415 = LINE('',#416,#417);
#416 = CARTESIAN_POINT('',(0.,0.));
#417 = VECTOR('',#418,1.);
#418 = DIRECTION('',(1.,0.));
#419 = ( GEOMETRIC_REPRESENTATION_CONTEXT(2) 
PARAMETRIC_REPRESENTATION_CONTEXT() REPRESENTATION_CONTEXT('2D SPACE',''
  ) );
#420 = PCURVE('',#392,#421);
#421 = DEFINITIONAL_REPRESENTATION('',(#422),#426);
#422 = CIRCLE('',#423,15.5);
#423 = AXIS2_PLACEMENT_2D('',#424,#425);
#424 = CARTESIAN_POINT('',(0.,0.));
#425 = DIRECTION('',(1.,0.));
#426 = ( GEOMETRIC_REPRESENTATION_CONTEXT(2) 
PARAMETRIC_REPRESENTATION_CONTEXT() REPRESENTATION_CONTEXT('2D SPACE',''
  ) );
#427 = ADVANCED_FACE('',(#428),#180,.F.);
#428 = FACE_BOUND('',#429,.F.);
#429 = EDGE_LOOP('',(#430,#449));
#430 = ORIENTED_EDGE('',*,*,#431,.T.);
#431 = EDGE_CURVE('',#164,#108,#432,.T.);
#432 = SURFACE_CURVE('',#433,(#437,#443),.PCURVE_S1.);
#433 = LINE('',#434,#435);
#434 = CARTESIAN_POINT('',(-91.,-2.,154.));
#435 = VECTOR('',#436,1.);
#436 = DIRECTION('',(-0.926466577122,0.376377046956,0.));
#437 = PCURVE('',#180,#438);
#438 = DEFINITIONAL_REPRESENTATION('',(#439),#442);
#439 = B_SPLINE_CURVE_WITH_KNOTS('',1,(#440,#441),.UNSPECIFIED.,.F.,.F.,
  (2,2),(-16.24511028877,16.245110288773),.PIECEWISE_BEZIER_KNOTS.);
#440 = CARTESIAN_POINT('',(4.863497537206,-15.5));
#441 = CARTESIAN_POINT('',(-4.863497537206,15.5));
#442 = ( GEOMETRIC_REPRESENTATION_CONTEXT(2) 
PARAMETRIC_REPRESENTATION_CONTEXT() REPRESENTATION_CONTEXT('2D SPACE',''
  ) );
#443 = PCURVE('',#392,#444);
#444 = DEFINITIONAL_REPRESENTATION('',(#445),#448);
#445 = B_SPLINE_CURVE_WITH_KNOTS('',1,(#446,#447),.UNSPECIFIED.,.F.,.F.,
  (2,2),(-16.24511028877,16.245110288773),.PIECEWISE_BEZIER_KNOTS.);
#446 = CARTESIAN_POINT('',(15.050551724214,-6.114286637962));
#447 = CARTESIAN_POINT('',(-15.05055172421,6.114286637962));
#448 = ( GEOMETRIC_REPRESENTATION_CONTEXT(2) 
PARAMETRIC_REPRESENTATION_CONTEXT() REPRESENTATION_CONTEXT('2D SPACE',''
  ) );
#449 = ORIENTED_EDGE('',*,*,#163,.T.);
#450 = ADVANCED_FACE('',(#451),#311,.F.);
#451 = FACE_BOUND('',#452,.F.);
#452 = EDGE_LOOP('',(#453,#454));
#453 = ORIENTED_EDGE('',*,*,#327,.T.);
#454 = ORIENTED_EDGE('',*,*,#296,.T.);
#455 = ADVANCED_FACE('',(#456),#392,.F.);
#456 = FACE_BOUND('',#457,.F.);
#457 = EDGE_LOOP('',(#458,#459,#460));
#458 = ORIENTED_EDGE('',*,*,#406,.T.);
#459 = ORIENTED_EDGE('',*,*,#377,.T.);
#460 = ORIENTED_EDGE('',*,*,#431,.F.);
#461 = ( GEOMETRIC_REPRESENTATION_CONTEXT(3) 
GLOBAL_UNCERTAINTY_ASSIGNED_CONTEXT((#465)) GLOBAL_UNIT_ASSIGNED_CONTEXT
((#462,#463,#464)) REPRESENTATION_CONTEXT('Context #1',
  '3D Context with UNIT and UNCERTAINTY') );
#462 = ( LENGTH_UNIT() NAMED_UNIT(*) SI_UNIT(.MILLI.,.METRE.) );
#463 = ( NAMED_UNIT(*) PLANE_ANGLE_UNIT() SI_UNIT($,.RADIAN.) );
#464 = ( NAMED_UNIT(*) SI_UNIT($,.STERADIAN.) SOLID_ANGLE_UNIT() );
#465 = UNCERTAINTY_MEASURE_WITH_UNIT(LENGTH_MEASURE(1.E-07),#462,
  'distance_accuracy_value','confusion accuracy');
#466 = PRODUCT_RELATED_PRODUCT_CATEGORY('part',$,(#7));
ENDSEC;
END-ISO-10303-21;
