ISO-10303-21;
HEADER;
FILE_DESCRIPTION(('Open CASCADE Model'),'2;1');
FILE_NAME('Open CASCADE Shape Model','2026-08-23T11:27:53',('Author'),(
    'Open CASCADE'),'Open CASCADE STEP processor 7.9','Open CASCADE 7.9'
  ,'Unknown');
FILE_SCHEMA(('AUTOMOTIVE_DESIGN { 1 0 10303 214 1 1 1 1 }'));
ENDSEC;
DATA;
#1 = APPLICATION_PROTOCOL_DEFINITION('international standard',
  'automotive_design',2000,#2);
#2 = APPLICATION_CONTEXT(
  'core data for automotive mechanical design processes');
#3 = SHAPE_DEFINITION_REPRESENTATION(#4,#10);
#4 = PRODUCT_DEFINITION_SHAPE('','',#5);
#5 = PRODUCT_DEFINITION('design','',#6,#9);
#6 = PRODUCT_DEFINITION_FORMATION('','',#7);
#7 = PRODUCT('Open CASCADE STEP translator 7.9 47',
  'Open CASCADE STEP translator 7.9 47','',(#8));
#8 = PRODUCT_CONTEXT('',#2,'mechanical');
#9 = PRODUCT_DEFINITION_CONTEXT('part definition',#2,'design');
#10 = ADVANCED_BREP_SHAPE_REPRESENTATION('',(#11,#15),#575);
#11 = AXIS2_PLACEMENT_3D('',#12,#13,#14);
#12 = CARTESIAN_POINT('',(0.,0.,0.));
#13 = DIRECTION('',(0.,0.,1.));
#14 = DIRECTION('',(1.,0.,-0.));
#15 = MANIFOLD_SOLID_BREP('',#16);
#16 = CLOSED_SHELL('',(#17,#405,#434,#460,#489,#564,#569));
#17 = ADVANCED_FACE('',(#18),#33,.T.);
#18 = FACE_BOUND('',#19,.T.);
#19 = EDGE_LOOP('',(#20,#56,#79,#108,#234,#256,#257,#281));
#20 = ORIENTED_EDGE('',*,*,#21,.F.);
#21 = EDGE_CURVE('',#22,#24,#26,.T.);
#22 = VERTEX_POINT('',#23);
#23 = CARTESIAN_POINT('',(97.,-72.22309978841,89.768386415627));
#24 = VERTEX_POINT('',#25);
#25 = CARTESIAN_POINT('',(111.2931781699,-77.44029871193,104.));
#26 = SURFACE_CURVE('',#27,(#32,#44),.PCURVE_S1.);
#27 = CIRCLE('',#28,14.5);
#28 = AXIS2_PLACEMENT_3D('',#29,#30,#31);
#29 = CARTESIAN_POINT('',(97.,-75.,104.));
#30 = DIRECTION('',(-0.165267257627,-0.967993937532,-0.18887686586));
#31 = DIRECTION('',(-3.469446951954E-18,0.19151035942,-0.981490592026));
#32 = PCURVE('',#33,#38);
#33 = CYLINDRICAL_SURFACE('',#34,14.5);
#34 = AXIS2_PLACEMENT_3D('',#35,#36,#37);
#35 = CARTESIAN_POINT('',(104.,-34.,112.));
#36 = DIRECTION('',(-0.165267257627,-0.967993937532,-0.18887686586));
#37 = DIRECTION('',(0.,0.19151035942,-0.981490592026));
#38 = DEFINITIONAL_REPRESENTATION('',(#39),#43);
#39 = LINE('',#40,#41);
#40 = CARTESIAN_POINT('',(0.,42.355637169095));
#41 = VECTOR('',#42,1.);
#42 = DIRECTION('',(1.,0.));
#43 = ( GEOMETRIC_REPRESENTATION_CONTEXT(2) 
PARAMETRIC_REPRESENTATION_CONTEXT() REPRESENTATION_CONTEXT('2D SPACE',''
  ) );
#44 = PCURVE('',#45,#50);
#45 = PLANE('',#46);
#46 = AXIS2_PLACEMENT_3D('',#47,#48,#49);
#47 = CARTESIAN_POINT('',(97.,-75.,104.));
#48 = DIRECTION('',(-0.165267257627,-0.967993937532,-0.18887686586));
#49 = DIRECTION('',(0.,0.19151035942,-0.981490592026));
#50 = DEFINITIONAL_REPRESENTATION('',(#51),#55);
#51 = CIRCLE('',#52,14.5);
#52 = AXIS2_PLACEMENT_2D('',#53,#54);
#53 = CARTESIAN_POINT('',(0.,0.));
#54 = DIRECTION('',(1.,0.));
#55 = ( GEOMETRIC_REPRESENTATION_CONTEXT(2) 
PARAMETRIC_REPRESENTATION_CONTEXT() REPRESENTATION_CONTEXT('2D SPACE',''
  ) );
#56 = ORIENTED_EDGE('',*,*,#57,.F.);
#57 = EDGE_CURVE('',#58,#22,#60,.T.);
#58 = VERTEX_POINT('',#59);
#59 = CARTESIAN_POINT('',(104.,-31.22309978841,97.768386415627));
#60 = SEAM_CURVE('',#61,(#65,#72),.PCURVE_S1.);
#61 = LINE('',#62,#63);
#62 = CARTESIAN_POINT('',(104.,-31.22309978841,97.768386415627));
#63 = VECTOR('',#64,1.);
#64 = DIRECTION('',(-0.165267257627,-0.967993937532,-0.18887686586));
#65 = PCURVE('',#33,#66);
#66 = DEFINITIONAL_REPRESENTATION('',(#67),#71);
#67 = LINE('',#68,#69);
#68 = CARTESIAN_POINT('',(6.28318530718,-0.));
#69 = VECTOR('',#70,1.);
#70 = DIRECTION('',(0.,1.));
#71 = ( GEOMETRIC_REPRESENTATION_CONTEXT(2) 
PARAMETRIC_REPRESENTATION_CONTEXT() REPRESENTATION_CONTEXT('2D SPACE',''
  ) );
#72 = PCURVE('',#33,#73);
#73 = DEFINITIONAL_REPRESENTATION('',(#74),#78);
#74 = LINE('',#75,#76);
#75 = CARTESIAN_POINT('',(0.,-0.));
#76 = VECTOR('',#77,1.);
#77 = DIRECTION('',(0.,1.));
#78 = ( GEOMETRIC_REPRESENTATION_CONTEXT(2) 
PARAMETRIC_REPRESENTATION_CONTEXT() REPRESENTATION_CONTEXT('2D SPACE',''
  ) );
#79 = ORIENTED_EDGE('',*,*,#80,.T.);
#80 = EDGE_CURVE('',#58,#81,#83,.T.);
#81 = VERTEX_POINT('',#82);
#82 = CARTESIAN_POINT('',(118.2931781699,-36.44029871193,112.));
#83 = SURFACE_CURVE('',#84,(#89,#96),.PCURVE_S1.);
#84 = CIRCLE('',#85,14.5);
#85 = AXIS2_PLACEMENT_3D('',#86,#87,#88);
#86 = CARTESIAN_POINT('',(104.,-34.,112.));
#87 = DIRECTION('',(-0.165267257627,-0.967993937532,-0.18887686586));
#88 = DIRECTION('',(-3.469446951954E-18,0.19151035942,-0.981490592026));
#89 = PCURVE('',#33,#90);
#90 = DEFINITIONAL_REPRESENTATION('',(#91),#95);
#91 = LINE('',#92,#93);
#92 = CARTESIAN_POINT('',(0.,0.));
#93 = VECTOR('',#94,1.);
#94 = DIRECTION('',(1.,0.));
#95 = ( GEOMETRIC_REPRESENTATION_CONTEXT(2) 
PARAMETRIC_REPRESENTATION_CONTEXT() REPRESENTATION_CONTEXT('2D SPACE',''
  ) );
#96 = PCURVE('',#97,#102);
#97 = PLANE('',#98);
#98 = AXIS2_PLACEMENT_3D('',#99,#100,#101);
#99 = CARTESIAN_POINT('',(104.,-34.,112.));
#100 = DIRECTION('',(-0.165267257627,-0.967993937532,-0.18887686586));
#101 = DIRECTION('',(0.,0.19151035942,-0.981490592026));
#102 = DEFINITIONAL_REPRESENTATION('',(#103),#107);
#103 = CIRCLE('',#104,14.5);
#104 = AXIS2_PLACEMENT_2D('',#105,#106);
#105 = CARTESIAN_POINT('',(0.,0.));
#106 = DIRECTION('',(1.,0.));
#107 = ( GEOMETRIC_REPRESENTATION_CONTEXT(2) 
PARAMETRIC_REPRESENTATION_CONTEXT() REPRESENTATION_CONTEXT('2D SPACE',''
  ) );
#108 = ORIENTED_EDGE('',*,*,#109,.T.);
#109 = EDGE_CURVE('',#81,#110,#112,.T.);
#110 = VERTEX_POINT('',#111);
#111 = CARTESIAN_POINT('',(89.706821830099,-31.55970128806,112.));
#112 = SURFACE_CURVE('',#113,(#118,#125),.PCURVE_S1.);
#113 = CIRCLE('',#114,14.5);
#114 = AXIS2_PLACEMENT_3D('',#115,#116,#117);
#115 = CARTESIAN_POINT('',(104.,-34.,112.));
#116 = DIRECTION('',(-0.165267257627,-0.967993937532,-0.18887686586));
#117 = DIRECTION('',(-3.469446951954E-18,0.19151035942,-0.981490592026)
  );
#118 = PCURVE('',#33,#119);
#119 = DEFINITIONAL_REPRESENTATION('',(#120),#124);
#120 = LINE('',#121,#122);
#121 = CARTESIAN_POINT('',(0.,0.));
#122 = VECTOR('',#123,1.);
#123 = DIRECTION('',(1.,0.));
#124 = ( GEOMETRIC_REPRESENTATION_CONTEXT(2) 
PARAMETRIC_REPRESENTATION_CONTEXT() REPRESENTATION_CONTEXT('2D SPACE',''
  ) );
#125 = PCURVE('',#126,#131);
#126 = SPHERICAL_SURFACE('',#127,14.5);
#127 = AXIS2_PLACEMENT_3D('',#128,#129,#130);
#128 = CARTESIAN_POINT('',(104.,-34.,112.));
#129 = DIRECTION('',(0.,0.,1.));
#130 = DIRECTION('',(1.,0.,-0.));
#131 = DEFINITIONAL_REPRESENTATION('',(#132),#233);
#132 = B_SPLINE_CURVE_WITH_KNOTS('',8,(#133,#134,#135,#136,#137,#138,
    #139,#140,#141,#142,#143,#144,#145,#146,#147,#148,#149,#150,#151,
    #152,#153,#154,#155,#156,#157,#158,#159,#160,#161,#162,#163,#164,
    #165,#166,#167,#168,#169,#170,#171,#172,#173,#174,#175,#176,#177,
    #178,#179,#180,#181,#182,#183,#184,#185,#186,#187,#188,#189,#190,
    #191,#192,#193,#194,#195,#196,#197,#198,#199,#200,#201,#202,#203,
    #204,#205,#206,#207,#208,#209,#210,#211,#212,#213,#214,#215,#216,
    #217,#218,#219,#220,#221,#222,#223,#224,#225,#226,#227,#228,#229,
    #230,#231,#232),.UNSPECIFIED.,.F.,.F.,(9,7,7,7,7,7,7,7,7,7,7,7,7,7,9
    ),(1.603032425712,1.995731507411,2.339343203897,2.640003438323,
    2.771542290884,2.89485996516,3.010470284794,3.118854959451,
    3.220465591942,3.315725559902,3.494337999827,3.650623884761,
    3.924124183396,4.334374631349,4.744625079302),.UNSPECIFIED.);
#133 = CARTESIAN_POINT('',(6.114084081178,-1.176070735051E-14));
#134 = CARTESIAN_POINT('',(6.104812609706,4.820385050724E-02));
#135 = CARTESIAN_POINT('',(6.095541078713,9.64076950238E-02));
#136 = CARTESIAN_POINT('',(6.086204115215,0.144605247917));
#137 = CARTESIAN_POINT('',(6.076735591153,0.192790147673));
#138 = CARTESIAN_POINT('',(6.067066211802,0.240955725718));
#139 = CARTESIAN_POINT('',(6.057119172289,0.28909458184));
#140 = CARTESIAN_POINT('',(6.046803882207,0.337197966234));
#141 = CARTESIAN_POINT('',(6.026561149926,0.427304844812));
#142 = CARTESIAN_POINT('',(6.016746372218,0.46931920699));
#143 = CARTESIAN_POINT('',(6.006487623215,0.51129070545));
#144 = CARTESIAN_POINT('',(5.995696157731,0.553210724299));
#145 = CARTESIAN_POINT('',(5.984263395029,0.595068678591));
#146 = CARTESIAN_POINT('',(5.972054769017,0.636851417277));
#147 = CARTESIAN_POINT('',(5.958895505086,0.678541783922));
#148 = CARTESIAN_POINT('',(5.931978009939,0.756492290874));
#149 = CARTESIAN_POINT('',(5.918500230704,0.792779793098));
#150 = CARTESIAN_POINT('',(5.903941280052,0.828961558021));
#151 = CARTESIAN_POINT('',(5.888093460759,0.865016863079));
#152 = CARTESIAN_POINT('',(5.870691102642,0.900919157039));
#153 = CARTESIAN_POINT('',(5.851377247412,0.936632207192));
#154 = CARTESIAN_POINT('',(5.829663988042,0.97210638794));
#155 = CARTESIAN_POINT('',(5.793903735997,1.022641413948));
#156 = CARTESIAN_POINT('',(5.782414662455,1.037960503913));
#157 = CARTESIAN_POINT('',(5.770256148652,1.053211731258));
#158 = CARTESIAN_POINT('',(5.75735394229,1.068387187595));
#159 = CARTESIAN_POINT('',(5.74362145684,1.083477577368));
#160 = CARTESIAN_POINT('',(5.728956423195,1.098471787095));
#161 = CARTESIAN_POINT('',(5.713236196604,1.113356229911));
#162 = CARTESIAN_POINT('',(5.680445021021,1.141949342431));
#163 = CARTESIAN_POINT('',(5.663519942316,1.155673346161));
#164 = CARTESIAN_POINT('',(5.645413353306,1.169272030654));
#165 = CARTESIAN_POINT('',(5.625982202753,1.182728735868));
#166 = CARTESIAN_POINT('',(5.605057839784,1.196023517856));
#167 = CARTESIAN_POINT('',(5.582440140722,1.209132066028));
#168 = CARTESIAN_POINT('',(5.557891440589,1.22202410748));
#169 = CARTESIAN_POINT('',(5.50604167121,1.246508664892));
#170 = CARTESIAN_POINT('',(5.479008546497,1.258132030674));
#171 = CARTESIAN_POINT('',(5.449799605984,1.269499816943));
#172 = CARTESIAN_POINT('',(5.418149587386,1.280574006229));
#173 = CARTESIAN_POINT('',(5.383760357556,1.291308921755));
#174 = CARTESIAN_POINT('',(5.346297953645,1.301648638699));
#175 = CARTESIAN_POINT('',(5.305411118729,1.31152466169));
#176 = CARTESIAN_POINT('',(5.218971045705,1.32960316644));
#177 = CARTESIAN_POINT('',(5.173869208395,1.337871668752));
#178 = CARTESIAN_POINT('',(5.125241922295,1.345593938555));
#179 = CARTESIAN_POINT('',(5.07287766449,1.352692849935));
#180 = CARTESIAN_POINT('',(5.016652723196,1.359082052413));
#181 = CARTESIAN_POINT('',(4.956609148662,1.364666828961));
#182 = CARTESIAN_POINT('',(4.893107406883,1.369356375673));
#183 = CARTESIAN_POINT('',(4.764617091174,1.376566693038));
#184 = CARTESIAN_POINT('',(4.69996940172,1.37920469258));
#185 = CARTESIAN_POINT('',(4.6333772378,1.380931741701));
#186 = CARTESIAN_POINT('',(4.565584696364,1.381701612356));
#187 = CARTESIAN_POINT('',(4.497548798432,1.381490960958));
#188 = CARTESIAN_POINT('',(4.430267012433,1.380310666448));
#189 = CARTESIAN_POINT('',(4.364559402758,1.378197640108));
#190 = CARTESIAN_POINT('',(4.241498924252,1.372400699438));
#191 = CARTESIAN_POINT('',(4.183880379038,1.368823233883));
#192 = CARTESIAN_POINT('',(4.128697655232,1.364517496993));
#193 = CARTESIAN_POINT('',(4.07629819287,1.359541123137));
#194 = CARTESIAN_POINT('',(4.026834925647,1.353957202865));
#195 = CARTESIAN_POINT('',(3.980312959601,1.347827831103));
#196 = CARTESIAN_POINT('',(3.936656352651,1.34121022582));
#197 = CARTESIAN_POINT('',(3.819008741828,1.320930718621));
#198 = CARTESIAN_POINT('',(3.751899947863,1.306171593907));
#199 = CARTESIAN_POINT('',(3.693560724523,1.290222223357));
#200 = CARTESIAN_POINT('',(3.642505361786,1.273357557978));
#201 = CARTESIAN_POINT('',(3.597513384284,1.255764307521));
#202 = CARTESIAN_POINT('',(3.557577213757,1.237585749076));
#203 = CARTESIAN_POINT('',(3.521887757034,1.21892743128));
#204 = CARTESIAN_POINT('',(3.461709521667,1.183197429805));
#205 = CARTESIAN_POINT('',(3.436378320943,1.166218961005));
#206 = CARTESIAN_POINT('',(3.413361793104,1.148990747508));
#207 = CARTESIAN_POINT('',(3.392315322027,1.131553501991));
#208 = CARTESIAN_POINT('',(3.37296425101,1.113938381941));
#209 = CARTESIAN_POINT('',(3.355085978483,1.096170165588));
#210 = CARTESIAN_POINT('',(3.338496876771,1.078269148229));
#211 = CARTESIAN_POINT('',(3.296001558934,1.02872132768));
#212 = CARTESIAN_POINT('',(3.272438762211,0.996834597759));
#213 = CARTESIAN_POINT('',(3.251536755053,0.964680049811));
#214 = CARTESIAN_POINT('',(3.232760111249,0.932313229306));
#215 = CARTESIAN_POINT('',(3.21572230551,0.899773732228));
#216 = CARTESIAN_POINT('',(3.200127891108,0.867091722921));
#217 = CARTESIAN_POINT('',(3.185751036944,0.834289835913));
#218 = CARTESIAN_POINT('',(3.152398555197,0.752031029964));
#219 = CARTESIAN_POINT('',(3.134717948231,0.702447032018));
#220 = CARTESIAN_POINT('',(3.118757350612,0.652695492146));
#221 = CARTESIAN_POINT('',(3.10414037894,0.602813412666));
#222 = CARTESIAN_POINT('',(3.090588769268,0.552828135809));
#223 = CARTESIAN_POINT('',(3.077895812227,0.502759798986));
#224 = CARTESIAN_POINT('',(3.065896264509,0.452624488466));
#225 = CARTESIAN_POINT('',(3.043014558121,0.352246045967));
#226 = CARTESIAN_POINT('',(3.032132373194,0.302002917005));
#227 = CARTESIAN_POINT('',(3.021674044905,0.251718955877));
#228 = CARTESIAN_POINT('',(3.011534242054,0.201404336284));
#229 = CARTESIAN_POINT('',(3.001623866612,0.15106764575));
#230 = CARTESIAN_POINT('',(2.991863125621,0.100716565537));
#231 = CARTESIAN_POINT('',(2.982177279942,5.035828242353E-02));
#232 = CARTESIAN_POINT('',(2.972491427588,-1.666100207989E-14));
#233 = ( GEOMETRIC_REPRESENTATION_CONTEXT(2) 
PARAMETRIC_REPRESENTATION_CONTEXT() REPRESENTATION_CONTEXT('2D SPACE',''
  ) );
#234 = ORIENTED_EDGE('',*,*,#235,.T.);
#235 = EDGE_CURVE('',#110,#58,#236,.T.);
#236 = SURFACE_CURVE('',#237,(#242,#249),.PCURVE_S1.);
#237 = CIRCLE('',#238,14.5);
#238 = AXIS2_PLACEMENT_3D('',#239,#240,#241);
#239 = CARTESIAN_POINT('',(104.,-34.,112.));
#240 = DIRECTION('',(-0.165267257627,-0.967993937532,-0.18887686586));
#241 = DIRECTION('',(-3.469446951954E-18,0.19151035942,-0.981490592026)
  );
#242 = PCURVE('',#33,#243);
#243 = DEFINITIONAL_REPRESENTATION('',(#244),#248);
#244 = LINE('',#245,#246);
#245 = CARTESIAN_POINT('',(0.,0.));
#246 = VECTOR('',#247,1.);
#247 = DIRECTION('',(1.,0.));
#248 = ( GEOMETRIC_REPRESENTATION_CONTEXT(2) 
PARAMETRIC_REPRESENTATION_CONTEXT() REPRESENTATION_CONTEXT('2D SPACE',''
  ) );
#249 = PCURVE('',#97,#250);
#250 = DEFINITIONAL_REPRESENTATION('',(#251),#255);
#251 = CIRCLE('',#252,14.5);
#252 = AXIS2_PLACEMENT_2D('',#253,#254);
#253 = CARTESIAN_POINT('',(0.,0.));
#254 = DIRECTION('',(1.,0.));
#255 = ( GEOMETRIC_REPRESENTATION_CONTEXT(2) 
PARAMETRIC_REPRESENTATION_CONTEXT() REPRESENTATION_CONTEXT('2D SPACE',''
  ) );
#256 = ORIENTED_EDGE('',*,*,#57,.T.);
#257 = ORIENTED_EDGE('',*,*,#258,.F.);
#258 = EDGE_CURVE('',#259,#22,#261,.T.);
#259 = VERTEX_POINT('',#260);
#260 = CARTESIAN_POINT('',(82.706821830099,-72.55970128806,104.));
#261 = SURFACE_CURVE('',#262,(#267,#274),.PCURVE_S1.);
#262 = CIRCLE('',#263,14.5);
#263 = AXIS2_PLACEMENT_3D('',#264,#265,#266);
#264 = CARTESIAN_POINT('',(97.,-75.,104.));
#265 = DIRECTION('',(-0.165267257627,-0.967993937532,-0.18887686586));
#266 = DIRECTION('',(-3.469446951954E-18,0.19151035942,-0.981490592026)
  );
#267 = PCURVE('',#33,#268);
#268 = DEFINITIONAL_REPRESENTATION('',(#269),#273);
#269 = LINE('',#270,#271);
#270 = CARTESIAN_POINT('',(0.,42.355637169095));
#271 = VECTOR('',#272,1.);
#272 = DIRECTION('',(1.,0.));
#273 = ( GEOMETRIC_REPRESENTATION_CONTEXT(2) 
PARAMETRIC_REPRESENTATION_CONTEXT() REPRESENTATION_CONTEXT('2D SPACE',''
  ) );
#274 = PCURVE('',#45,#275);
#275 = DEFINITIONAL_REPRESENTATION('',(#276),#280);
#276 = CIRCLE('',#277,14.5);
#277 = AXIS2_PLACEMENT_2D('',#278,#279);
#278 = CARTESIAN_POINT('',(0.,0.));
#279 = DIRECTION('',(1.,0.));
#280 = ( GEOMETRIC_REPRESENTATION_CONTEXT(2) 
PARAMETRIC_REPRESENTATION_CONTEXT() REPRESENTATION_CONTEXT('2D SPACE',''
  ) );
#281 = ORIENTED_EDGE('',*,*,#282,.F.);
#282 = EDGE_CURVE('',#24,#259,#283,.T.);
#283 = SURFACE_CURVE('',#284,(#289,#296),.PCURVE_S1.);
#284 = CIRCLE('',#285,14.5);
#285 = AXIS2_PLACEMENT_3D('',#286,#287,#288);
#286 = CARTESIAN_POINT('',(97.,-75.,104.));
#287 = DIRECTION('',(-0.165267257627,-0.967993937532,-0.18887686586));
#288 = DIRECTION('',(-3.469446951954E-18,0.19151035942,-0.981490592026)
  );
#289 = PCURVE('',#33,#290);
#290 = DEFINITIONAL_REPRESENTATION('',(#291),#295);
#291 = LINE('',#292,#293);
#292 = CARTESIAN_POINT('',(0.,42.355637169095));
#293 = VECTOR('',#294,1.);
#294 = DIRECTION('',(1.,0.));
#295 = ( GEOMETRIC_REPRESENTATION_CONTEXT(2) 
PARAMETRIC_REPRESENTATION_CONTEXT() REPRESENTATION_CONTEXT('2D SPACE',''
  ) );
#296 = PCURVE('',#297,#302);
#297 = SPHERICAL_SURFACE('',#298,14.5);
#298 = AXIS2_PLACEMENT_3D('',#299,#300,#301);
#299 = CARTESIAN_POINT('',(97.,-75.,104.));
#300 = DIRECTION('',(0.,0.,1.));
#301 = DIRECTION('',(1.,0.,-0.));
#302 = DEFINITIONAL_REPRESENTATION('',(#303),#404);
#303 = B_SPLINE_CURVE_WITH_KNOTS('',8,(#304,#305,#306,#307,#308,#309,
    #310,#311,#312,#313,#314,#315,#316,#317,#318,#319,#320,#321,#322,
    #323,#324,#325,#326,#327,#328,#329,#330,#331,#332,#333,#334,#335,
    #336,#337,#338,#339,#340,#341,#342,#343,#344,#345,#346,#347,#348,
    #349,#350,#351,#352,#353,#354,#355,#356,#357,#358,#359,#360,#361,
    #362,#363,#364,#365,#366,#367,#368,#369,#370,#371,#372,#373,#374,
    #375,#376,#377,#378,#379,#380,#381,#382,#383,#384,#385,#386,#387,
    #388,#389,#390,#391,#392,#393,#394,#395,#396,#397,#398,#399,#400,
    #401,#402,#403),.UNSPECIFIED.,.F.,.F.,(9,7,7,7,7,7,7,7,7,7,7,7,7,7,9
    ),(1.603032425712,1.995731507411,2.339343203897,2.640003438323,
    2.771542290884,2.89485996516,3.010470284794,3.118854959451,
    3.220465591942,3.315725559902,3.494337999827,3.650623884761,
    3.924124183396,4.334374631349,4.744625079302),.UNSPECIFIED.);
#304 = CARTESIAN_POINT('',(6.114084081178,-1.176070735051E-14));
#305 = CARTESIAN_POINT('',(6.104812609706,4.820385050724E-02));
#306 = CARTESIAN_POINT('',(6.095541078713,9.64076950238E-02));
#307 = CARTESIAN_POINT('',(6.086204115215,0.144605247917));
#308 = CARTESIAN_POINT('',(6.076735591153,0.192790147673));
#309 = CARTESIAN_POINT('',(6.067066211802,0.240955725718));
#310 = CARTESIAN_POINT('',(6.057119172289,0.28909458184));
#311 = CARTESIAN_POINT('',(6.046803882207,0.337197966234));
#312 = CARTESIAN_POINT('',(6.026561149926,0.427304844812));
#313 = CARTESIAN_POINT('',(6.016746372219,0.46931920699));
#314 = CARTESIAN_POINT('',(6.006487623214,0.51129070545));
#315 = CARTESIAN_POINT('',(5.995696157731,0.553210724299));
#316 = CARTESIAN_POINT('',(5.98426339503,0.595068678591));
#317 = CARTESIAN_POINT('',(5.972054769015,0.636851417277));
#318 = CARTESIAN_POINT('',(5.958895505086,0.678541783922));
#319 = CARTESIAN_POINT('',(5.931978009939,0.756492290874));
#320 = CARTESIAN_POINT('',(5.918500230704,0.792779793096));
#321 = CARTESIAN_POINT('',(5.903941280052,0.828961558028));
#322 = CARTESIAN_POINT('',(5.888093460759,0.86501686307));
#323 = CARTESIAN_POINT('',(5.870691102642,0.900919157047));
#324 = CARTESIAN_POINT('',(5.851377247412,0.936632207191));
#325 = CARTESIAN_POINT('',(5.829663988042,0.97210638794));
#326 = CARTESIAN_POINT('',(5.793903735997,1.022641413948));
#327 = CARTESIAN_POINT('',(5.782414662455,1.037960503913));
#328 = CARTESIAN_POINT('',(5.770256148652,1.053211731258));
#329 = CARTESIAN_POINT('',(5.75735394229,1.068387187595));
#330 = CARTESIAN_POINT('',(5.74362145684,1.083477577368));
#331 = CARTESIAN_POINT('',(5.728956423195,1.098471787096));
#332 = CARTESIAN_POINT('',(5.713236196604,1.113356229911));
#333 = CARTESIAN_POINT('',(5.680445021021,1.141949342431));
#334 = CARTESIAN_POINT('',(5.663519942316,1.155673346161));
#335 = CARTESIAN_POINT('',(5.645413353306,1.169272030654));
#336 = CARTESIAN_POINT('',(5.625982202753,1.182728735868));
#337 = CARTESIAN_POINT('',(5.605057839784,1.196023517856));
#338 = CARTESIAN_POINT('',(5.582440140722,1.209132066028));
#339 = CARTESIAN_POINT('',(5.557891440589,1.22202410748));
#340 = CARTESIAN_POINT('',(5.50604167121,1.246508664892));
#341 = CARTESIAN_POINT('',(5.479008546497,1.258132030674));
#342 = CARTESIAN_POINT('',(5.449799605984,1.269499816943));
#343 = CARTESIAN_POINT('',(5.418149587386,1.280574006229));
#344 = CARTESIAN_POINT('',(5.383760357556,1.291308921755));
#345 = CARTESIAN_POINT('',(5.346297953645,1.301648638699));
#346 = CARTESIAN_POINT('',(5.305411118729,1.31152466169));
#347 = CARTESIAN_POINT('',(5.218971045705,1.32960316644));
#348 = CARTESIAN_POINT('',(5.173869208394,1.337871668751));
#349 = CARTESIAN_POINT('',(5.125241922302,1.345593938552));
#350 = CARTESIAN_POINT('',(5.072877664476,1.352692849932));
#351 = CARTESIAN_POINT('',(5.016652723196,1.35908205242));
#352 = CARTESIAN_POINT('',(4.956609148659,1.36466682896));
#353 = CARTESIAN_POINT('',(4.893107406883,1.369356375673));
#354 = CARTESIAN_POINT('',(4.764617091174,1.376566693038));
#355 = CARTESIAN_POINT('',(4.69996940172,1.379204692581));
#356 = CARTESIAN_POINT('',(4.6333772378,1.3809317417));
#357 = CARTESIAN_POINT('',(4.565584696364,1.38170161236));
#358 = CARTESIAN_POINT('',(4.497548798432,1.381490960954));
#359 = CARTESIAN_POINT('',(4.430267012433,1.38031066645));
#360 = CARTESIAN_POINT('',(4.364559402758,1.378197640108));
#361 = CARTESIAN_POINT('',(4.241498924252,1.372400699438));
#362 = CARTESIAN_POINT('',(4.183880379038,1.368823233883));
#363 = CARTESIAN_POINT('',(4.128697655233,1.364517496993));
#364 = CARTESIAN_POINT('',(4.076298192871,1.359541123137));
#365 = CARTESIAN_POINT('',(4.026834925647,1.353957202865));
#366 = CARTESIAN_POINT('',(3.980312959601,1.347827831103));
#367 = CARTESIAN_POINT('',(3.936656352651,1.34121022582));
#368 = CARTESIAN_POINT('',(3.819008741828,1.320930718621));
#369 = CARTESIAN_POINT('',(3.751899947863,1.306171593905));
#370 = CARTESIAN_POINT('',(3.693560724525,1.290222223368));
#371 = CARTESIAN_POINT('',(3.642505361771,1.273357557967));
#372 = CARTESIAN_POINT('',(3.597513384293,1.25576430753));
#373 = CARTESIAN_POINT('',(3.557577213757,1.237585749075));
#374 = CARTESIAN_POINT('',(3.521887757034,1.21892743128));
#375 = CARTESIAN_POINT('',(3.461709521667,1.183197429805));
#376 = CARTESIAN_POINT('',(3.436378320943,1.166218961005));
#377 = CARTESIAN_POINT('',(3.413361793104,1.148990747508));
#378 = CARTESIAN_POINT('',(3.392315322027,1.131553501991));
#379 = CARTESIAN_POINT('',(3.37296425101,1.113938381941));
#380 = CARTESIAN_POINT('',(3.355085978483,1.096170165588));
#381 = CARTESIAN_POINT('',(3.338496876771,1.078269148229));
#382 = CARTESIAN_POINT('',(3.296001558934,1.02872132768));
#383 = CARTESIAN_POINT('',(3.272438762211,0.996834597759));
#384 = CARTESIAN_POINT('',(3.251536755053,0.964680049811));
#385 = CARTESIAN_POINT('',(3.23276011125,0.932313229306));
#386 = CARTESIAN_POINT('',(3.21572230551,0.899773732228));
#387 = CARTESIAN_POINT('',(3.200127891108,0.867091722921));
#388 = CARTESIAN_POINT('',(3.185751036944,0.834289835913));
#389 = CARTESIAN_POINT('',(3.152398555197,0.752031029964));
#390 = CARTESIAN_POINT('',(3.13471794823,0.702447032018));
#391 = CARTESIAN_POINT('',(3.118757350609,0.652695492146));
#392 = CARTESIAN_POINT('',(3.104140378966,0.602813412666));
#393 = CARTESIAN_POINT('',(3.090588769257,0.552828135809));
#394 = CARTESIAN_POINT('',(3.077895812228,0.502759798986));
#395 = CARTESIAN_POINT('',(3.065896264509,0.452624488466));
#396 = CARTESIAN_POINT('',(3.043014558121,0.352246045967));
#397 = CARTESIAN_POINT('',(3.032132373194,0.302002917005));
#398 = CARTESIAN_POINT('',(3.021674044905,0.251718955877));
#399 = CARTESIAN_POINT('',(3.011534242053,0.201404336283));
#400 = CARTESIAN_POINT('',(3.001623866612,0.151067645749));
#401 = CARTESIAN_POINT('',(2.991863125621,0.100716565537));
#402 = CARTESIAN_POINT('',(2.982177279942,5.035828242353E-02));
#403 = CARTESIAN_POINT('',(2.972491427588,-1.666100207989E-14));
#404 = ( GEOMETRIC_REPRESENTATION_CONTEXT(2) 
PARAMETRIC_REPRESENTATION_CONTEXT() REPRESENTATION_CONTEXT('2D SPACE',''
  ) );
#405 = ADVANCED_FACE('',(#406),#45,.T.);
#406 = FACE_BOUND('',#407,.T.);
#407 = EDGE_LOOP('',(#408,#409,#410));
#408 = ORIENTED_EDGE('',*,*,#258,.T.);
#409 = ORIENTED_EDGE('',*,*,#21,.T.);
#410 = ORIENTED_EDGE('',*,*,#411,.T.);
#411 = EDGE_CURVE('',#24,#259,#412,.T.);
#412 = SURFACE_CURVE('',#413,(#417,#423),.PCURVE_S1.);
#413 = LINE('',#414,#415);
#414 = CARTESIAN_POINT('',(97.,-75.,104.));
#415 = VECTOR('',#416,1.);
#416 = DIRECTION('',(-0.98573642551,0.168296462892,0.));
#417 = PCURVE('',#45,#418);
#418 = DEFINITIONAL_REPRESENTATION('',(#419),#422);
#419 = B_SPLINE_CURVE_WITH_KNOTS('',1,(#420,#421),.UNSPECIFIED.,.F.,.F.,
  (2,2),(-14.5075372175,14.507537217507),.PIECEWISE_BEZIER_KNOTS.);
#420 = CARTESIAN_POINT('',(-0.467585411824,14.5));
#421 = CARTESIAN_POINT('',(0.467585411824,-14.5));
#422 = ( GEOMETRIC_REPRESENTATION_CONTEXT(2) 
PARAMETRIC_REPRESENTATION_CONTEXT() REPRESENTATION_CONTEXT('2D SPACE',''
  ) );
#423 = PCURVE('',#424,#429);
#424 = PLANE('',#425);
#425 = AXIS2_PLACEMENT_3D('',#426,#427,#428);
#426 = CARTESIAN_POINT('',(97.,-75.,104.));
#427 = DIRECTION('',(0.,0.,1.));
#428 = DIRECTION('',(1.,0.,-0.));
#429 = DEFINITIONAL_REPRESENTATION('',(#430),#433);
#430 = B_SPLINE_CURVE_WITH_KNOTS('',1,(#431,#432),.UNSPECIFIED.,.F.,.F.,
  (2,2),(-14.5075372175,14.507537217507),.PIECEWISE_BEZIER_KNOTS.);
#431 = CARTESIAN_POINT('',(14.300607879745,-2.441567198981));
#432 = CARTESIAN_POINT('',(-14.30060787974,2.441567198981));
#433 = ( GEOMETRIC_REPRESENTATION_CONTEXT(2) 
PARAMETRIC_REPRESENTATION_CONTEXT() REPRESENTATION_CONTEXT('2D SPACE',''
  ) );
#434 = ADVANCED_FACE('',(#435),#297,.T.);
#435 = FACE_BOUND('',#436,.T.);
#436 = EDGE_LOOP('',(#437,#438));
#437 = ORIENTED_EDGE('',*,*,#282,.T.);
#438 = ORIENTED_EDGE('',*,*,#439,.T.);
#439 = EDGE_CURVE('',#259,#24,#440,.T.);
#440 = SURFACE_CURVE('',#441,(#446,#453),.PCURVE_S1.);
#441 = CIRCLE('',#442,14.5);
#442 = AXIS2_PLACEMENT_3D('',#443,#444,#445);
#443 = CARTESIAN_POINT('',(97.,-75.,104.));
#444 = DIRECTION('',(0.,0.,1.));
#445 = DIRECTION('',(1.,0.,-0.));
#446 = PCURVE('',#297,#447);
#447 = DEFINITIONAL_REPRESENTATION('',(#448),#452);
#448 = LINE('',#449,#450);
#449 = CARTESIAN_POINT('',(0.,0.));
#450 = VECTOR('',#451,1.);
#451 = DIRECTION('',(1.,0.));
#452 = ( GEOMETRIC_REPRESENTATION_CONTEXT(2) 
PARAMETRIC_REPRESENTATION_CONTEXT() REPRESENTATION_CONTEXT('2D SPACE',''
  ) );
#453 = PCURVE('',#424,#454);
#454 = DEFINITIONAL_REPRESENTATION('',(#455),#459);
#455 = CIRCLE('',#456,14.5);
#456 = AXIS2_PLACEMENT_2D('',#457,#458);
#457 = CARTESIAN_POINT('',(0.,0.));
#458 = DIRECTION('',(1.,0.));
#459 = ( GEOMETRIC_REPRESENTATION_CONTEXT(2) 
PARAMETRIC_REPRESENTATION_CONTEXT() REPRESENTATION_CONTEXT('2D SPACE',''
  ) );
#460 = ADVANCED_FACE('',(#461),#97,.F.);
#461 = FACE_BOUND('',#462,.F.);
#462 = EDGE_LOOP('',(#463,#464,#465));
#463 = ORIENTED_EDGE('',*,*,#235,.T.);
#464 = ORIENTED_EDGE('',*,*,#80,.T.);
#465 = ORIENTED_EDGE('',*,*,#466,.T.);
#466 = EDGE_CURVE('',#81,#110,#467,.T.);
#467 = SURFACE_CURVE('',#468,(#472,#478),.PCURVE_S1.);
#468 = LINE('',#469,#470);
#469 = CARTESIAN_POINT('',(104.,-34.,112.));
#470 = VECTOR('',#471,1.);
#471 = DIRECTION('',(-0.98573642551,0.168296462892,0.));
#472 = PCURVE('',#97,#473);
#473 = DEFINITIONAL_REPRESENTATION('',(#474),#477);
#474 = B_SPLINE_CURVE_WITH_KNOTS('',1,(#475,#476),.UNSPECIFIED.,.F.,.F.,
  (2,2),(-14.5075372175,14.507537217507),.PIECEWISE_BEZIER_KNOTS.);
#475 = CARTESIAN_POINT('',(-0.467585411824,14.5));
#476 = CARTESIAN_POINT('',(0.467585411824,-14.5));
#477 = ( GEOMETRIC_REPRESENTATION_CONTEXT(2) 
PARAMETRIC_REPRESENTATION_CONTEXT() REPRESENTATION_CONTEXT('2D SPACE',''
  ) );
#478 = PCURVE('',#479,#484);
#479 = PLANE('',#480);
#480 = AXIS2_PLACEMENT_3D('',#481,#482,#483);
#481 = CARTESIAN_POINT('',(104.,-34.,112.));
#482 = DIRECTION('',(0.,0.,1.));
#483 = DIRECTION('',(1.,0.,-0.));
#484 = DEFINITIONAL_REPRESENTATION('',(#485),#488);
#485 = B_SPLINE_CURVE_WITH_KNOTS('',1,(#486,#487),.UNSPECIFIED.,.F.,.F.,
  (2,2),(-14.5075372175,14.507537217507),.PIECEWISE_BEZIER_KNOTS.);
#486 = CARTESIAN_POINT('',(14.300607879745,-2.441567198981));
#487 = CARTESIAN_POINT('',(-14.30060787974,2.441567198981));
#488 = ( GEOMETRIC_REPRESENTATION_CONTEXT(2) 
PARAMETRIC_REPRESENTATION_CONTEXT() REPRESENTATION_CONTEXT('2D SPACE',''
  ) );
#489 = ADVANCED_FACE('',(#490),#126,.T.);
#490 = FACE_BOUND('',#491,.T.);
#491 = EDGE_LOOP('',(#492,#518,#519,#541,#542));
#492 = ORIENTED_EDGE('',*,*,#493,.T.);
#493 = EDGE_CURVE('',#494,#496,#498,.T.);
#494 = VERTEX_POINT('',#495);
#495 = CARTESIAN_POINT('',(118.5,-34.,112.));
#496 = VERTEX_POINT('',#497);
#497 = CARTESIAN_POINT('',(104.,-34.,126.5));
#498 = SEAM_CURVE('',#499,(#504,#511),.PCURVE_S1.);
#499 = CIRCLE('',#500,14.5);
#500 = AXIS2_PLACEMENT_3D('',#501,#502,#503);
#501 = CARTESIAN_POINT('',(104.,-34.,112.));
#502 = DIRECTION('',(-2.449293598295E-16,-1.,0.));
#503 = DIRECTION('',(1.,-2.449293598295E-16,0.));
#504 = PCURVE('',#126,#505);
#505 = DEFINITIONAL_REPRESENTATION('',(#506),#510);
#506 = LINE('',#507,#508);
#507 = CARTESIAN_POINT('',(6.28318530718,-6.28318530718));
#508 = VECTOR('',#509,1.);
#509 = DIRECTION('',(0.,1.));
#510 = ( GEOMETRIC_REPRESENTATION_CONTEXT(2) 
PARAMETRIC_REPRESENTATION_CONTEXT() REPRESENTATION_CONTEXT('2D SPACE',''
  ) );
#511 = PCURVE('',#126,#512);
#512 = DEFINITIONAL_REPRESENTATION('',(#513),#517);
#513 = LINE('',#514,#515);
#514 = CARTESIAN_POINT('',(0.,-6.28318530718));
#515 = VECTOR('',#516,1.);
#516 = DIRECTION('',(0.,1.));
#517 = ( GEOMETRIC_REPRESENTATION_CONTEXT(2) 
PARAMETRIC_REPRESENTATION_CONTEXT() REPRESENTATION_CONTEXT('2D SPACE',''
  ) );
#518 = ORIENTED_EDGE('',*,*,#493,.F.);
#519 = ORIENTED_EDGE('',*,*,#520,.T.);
#520 = EDGE_CURVE('',#494,#110,#521,.T.);
#521 = SURFACE_CURVE('',#522,(#527,#534),.PCURVE_S1.);
#522 = CIRCLE('',#523,14.5);
#523 = AXIS2_PLACEMENT_3D('',#524,#525,#526);
#524 = CARTESIAN_POINT('',(104.,-34.,112.));
#525 = DIRECTION('',(0.,0.,1.));
#526 = DIRECTION('',(1.,0.,-0.));
#527 = PCURVE('',#126,#528);
#528 = DEFINITIONAL_REPRESENTATION('',(#529),#533);
#529 = LINE('',#530,#531);
#530 = CARTESIAN_POINT('',(0.,0.));
#531 = VECTOR('',#532,1.);
#532 = DIRECTION('',(1.,0.));
#533 = ( GEOMETRIC_REPRESENTATION_CONTEXT(2) 
PARAMETRIC_REPRESENTATION_CONTEXT() REPRESENTATION_CONTEXT('2D SPACE',''
  ) );
#534 = PCURVE('',#479,#535);
#535 = DEFINITIONAL_REPRESENTATION('',(#536),#540);
#536 = CIRCLE('',#537,14.5);
#537 = AXIS2_PLACEMENT_2D('',#538,#539);
#538 = CARTESIAN_POINT('',(0.,0.));
#539 = DIRECTION('',(1.,0.));
#540 = ( GEOMETRIC_REPRESENTATION_CONTEXT(2) 
PARAMETRIC_REPRESENTATION_CONTEXT() REPRESENTATION_CONTEXT('2D SPACE',''
  ) );
#541 = ORIENTED_EDGE('',*,*,#109,.F.);
#542 = ORIENTED_EDGE('',*,*,#543,.T.);
#543 = EDGE_CURVE('',#81,#494,#544,.T.);
#544 = SURFACE_CURVE('',#545,(#550,#557),.PCURVE_S1.);
#545 = CIRCLE('',#546,14.5);
#546 = AXIS2_PLACEMENT_3D('',#547,#548,#549);
#547 = CARTESIAN_POINT('',(104.,-34.,112.));
#548 = DIRECTION('',(0.,0.,1.));
#549 = DIRECTION('',(1.,0.,-0.));
#550 = PCURVE('',#126,#551);
#551 = DEFINITIONAL_REPRESENTATION('',(#552),#556);
#552 = LINE('',#553,#554);
#553 = CARTESIAN_POINT('',(0.,0.));
#554 = VECTOR('',#555,1.);
#555 = DIRECTION('',(1.,0.));
#556 = ( GEOMETRIC_REPRESENTATION_CONTEXT(2) 
PARAMETRIC_REPRESENTATION_CONTEXT() REPRESENTATION_CONTEXT('2D SPACE',''
  ) );
#557 = PCURVE('',#479,#558);
#558 = DEFINITIONAL_REPRESENTATION('',(#559),#563);
#559 = CIRCLE('',#560,14.5);
#560 = AXIS2_PLACEMENT_2D('',#561,#562);
#561 = CARTESIAN_POINT('',(0.,0.));
#562 = DIRECTION('',(1.,0.));
#563 = ( GEOMETRIC_REPRESENTATION_CONTEXT(2) 
PARAMETRIC_REPRESENTATION_CONTEXT() REPRESENTATION_CONTEXT('2D SPACE',''
  ) );
#564 = ADVANCED_FACE('',(#565),#424,.F.);
#565 = FACE_BOUND('',#566,.F.);
#566 = EDGE_LOOP('',(#567,#568));
#567 = ORIENTED_EDGE('',*,*,#411,.T.);
#568 = ORIENTED_EDGE('',*,*,#439,.T.);
#569 = ADVANCED_FACE('',(#570),#479,.F.);
#570 = FACE_BOUND('',#571,.F.);
#571 = EDGE_LOOP('',(#572,#573,#574));
#572 = ORIENTED_EDGE('',*,*,#543,.T.);
#573 = ORIENTED_EDGE('',*,*,#520,.T.);
#574 = ORIENTED_EDGE('',*,*,#466,.F.);
#575 = ( GEOMETRIC_REPRESENTATION_CONTEXT(3) 
GLOBAL_UNCERTAINTY_ASSIGNED_CONTEXT((#579)) GLOBAL_UNIT_ASSIGNED_CONTEXT
((#576,#577,#578)) REPRESENTATION_CONTEXT('Context #1',
  '3D Context with UNIT and UNCERTAINTY') );
#576 = ( LENGTH_UNIT() NAMED_UNIT(*) SI_UNIT(.MILLI.,.METRE.) );
#577 = ( NAMED_UNIT(*) PLANE_ANGLE_UNIT() SI_UNIT($,.RADIAN.) );
#578 = ( NAMED_UNIT(*) SI_UNIT($,.STERADIAN.) SOLID_ANGLE_UNIT() );
#579 = UNCERTAINTY_MEASURE_WITH_UNIT(LENGTH_MEASURE(1.E-07),#576,
  'distance_accuracy_value','confusion accuracy');
#580 = PRODUCT_RELATED_PRODUCT_CATEGORY('part',$,(#7));
ENDSEC;
END-ISO-10303-21;
