ISO-10303-21;
HEADER;
FILE_DESCRIPTION(('Open CASCADE Model'),'2;1');
FILE_NAME('Open CASCADE Shape Model','2026-08-23T11:27:53',('Author'),(
    'Open CASCADE'),'Open CASCADE STEP processor 7.9','Open CASCADE 7.9'
  ,'Unknown');
FILE_SCHEMA(('AUTOMOTIVE_DESIGN { 1 0 10303 214 1 1 1 1 }'));
ENDSEC;
DATA;
#1 = APPLICATION_PROTOCOL_DEFINITION('international standard',
  'automotive_design',2000,#2);
#2 = APPLICATION_CONTEXT(
  'core data for automotive mechanical design processes');
#3 = SHAPE_DEFINITION_REPRESENTATION(#4,#10);
#4 = PRODUCT_DEFINITION_SHAPE('','',#5);
#5 = PRODUCT_DEFINITION('design','',#6,#9);
#6 = PRODUCT_DEFINITION_FORMATION('','',#7);
#7 = PRODUCT('Open CASCADE STEP translator 7.9 46',
  'Open CASCADE STEP translator 7.9 46','',(#8));
#8 = PRODUCT_CONTEXT('',#2,'mechanical');
#9 = PRODUCT_DEFINITION_CONTEXT('part definition',#2,'design');
#10 = ADVANCED_BREP_SHAPE_REPRESENTATION('',(#11,#15),#538);
#11 = AXIS2_PLACEMENT_3D('',#12,#13,#14);
#12 = CARTESIAN_POINT('',(0.,0.,0.));
#13 = DIRECTION('',(0.,0.,1.));
#14 = DIRECTION('',(1.,0.,-0.));
#15 = MANIFOLD_SOLID_BREP('',#16);
#16 = CLOSED_SHELL('',(#17,#340,#396,#419,#446,#504,#527,#533));
#17 = ADVANCED_FACE('',(#18),#33,.T.);
#18 = FACE_BOUND('',#19,.T.);
#19 = EDGE_LOOP('',(#20,#69,#92,#134,#163,#192,#234,#235,#279,#313));
#20 = ORIENTED_EDGE('',*,*,#21,.F.);
#21 = EDGE_CURVE('',#22,#24,#26,.T.);
#22 = VERTEX_POINT('',#23);
#23 = CARTESIAN_POINT('',(104.,-46.3291916605,121.39366983657));
#24 = VERTEX_POINT('',#25);
#25 = CARTESIAN_POINT('',(89.639768054604,-39.83384422781,112.));
#26 = SURFACE_CURVE('',#27,(#32,#44),.PCURVE_S1.);
#27 = CIRCLE('',#28,15.5);
#28 = AXIS2_PLACEMENT_3D('',#29,#30,#31);
#29 = CARTESIAN_POINT('',(104.,-34.,112.));
#30 = DIRECTION('',(0.239065931168,-0.588469984414,-0.772366854544));
#31 = DIRECTION('',(1.387778780781E-17,-0.795431720032,0.606043215263));
#32 = PCURVE('',#33,#38);
#33 = CYLINDRICAL_SURFACE('',#34,15.5);
#34 = AXIS2_PLACEMENT_3D('',#35,#36,#37);
#35 = CARTESIAN_POINT('',(91.,-2.,154.));
#36 = DIRECTION('',(0.239065931168,-0.588469984414,-0.772366854544));
#37 = DIRECTION('',(1.387778780781E-17,-0.795431720032,0.606043215263));
#38 = DEFINITIONAL_REPRESENTATION('',(#39),#43);
#39 = LINE('',#40,#41);
#40 = CARTESIAN_POINT('',(0.,54.37830449729));
#41 = VECTOR('',#42,1.);
#42 = DIRECTION('',(1.,0.));
#43 = ( GEOMETRIC_REPRESENTATION_CONTEXT(2) 
PARAMETRIC_REPRESENTATION_CONTEXT() REPRESENTATION_CONTEXT('2D SPACE',''
  ) );
#44 = PCURVE('',#45,#50);
#45 = SPHERICAL_SURFACE('',#46,15.5);
#46 = AXIS2_PLACEMENT_3D('',#47,#48,#49);
#47 = CARTESIAN_POINT('',(104.,-34.,112.));
#48 = DIRECTION('',(0.,0.,1.));
#49 = DIRECTION('',(1.,0.,-0.));
#50 = DEFINITIONAL_REPRESENTATION('',(#51),#68);
#51 = B_SPLINE_CURVE_WITH_KNOTS('',8,(#52,#53,#54,#55,#56,#57,#58,#59,
    #60,#61,#62,#63,#64,#65,#66,#67),.UNSPECIFIED.,.F.,.F.,(9,7,9),(0.,
    0.633375596703,1.266751193406),.UNSPECIFIED.);
#52 = CARTESIAN_POINT('',(4.712388980385,0.651076721444));
#53 = CARTESIAN_POINT('',(4.61574180714,0.632149405594));
#54 = CARTESIAN_POINT('',(4.5222803205,0.608076043547));
#55 = CARTESIAN_POINT('',(4.432725530658,0.579323600383));
#56 = CARTESIAN_POINT('',(4.347396001493,0.546479798395));
#57 = CARTESIAN_POINT('',(4.266162839367,0.510150119694));
#58 = CARTESIAN_POINT('',(4.188706073074,0.470878932285));
#59 = CARTESIAN_POINT('',(4.114602633204,0.429155282183));
#60 = CARTESIAN_POINT('',(3.972173233012,0.34166965664));
#61 = CARTESIAN_POINT('',(3.903847300023,0.295907684515));
#62 = CARTESIAN_POINT('',(3.837945053673,0.248560367674));
#63 = CARTESIAN_POINT('',(3.773959851573,0.200006441011));
#64 = CARTESIAN_POINT('',(3.711395821049,0.150578080425));
#65 = CARTESIAN_POINT('',(3.649774945819,0.100576330798));
#66 = CARTESIAN_POINT('',(3.588625112659,5.02881777827E-02));
#67 = CARTESIAN_POINT('',(3.527475322988,8.251464028182E-15));
#68 = ( GEOMETRIC_REPRESENTATION_CONTEXT(2) 
PARAMETRIC_REPRESENTATION_CONTEXT() REPRESENTATION_CONTEXT('2D SPACE',''
  ) );
#69 = ORIENTED_EDGE('',*,*,#70,.F.);
#70 = EDGE_CURVE('',#71,#22,#73,.T.);
#71 = VERTEX_POINT('',#72);
#72 = CARTESIAN_POINT('',(91.,-14.3291916605,163.39366983657));
#73 = SEAM_CURVE('',#74,(#78,#85),.PCURVE_S1.);
#74 = LINE('',#75,#76);
#75 = CARTESIAN_POINT('',(91.,-14.3291916605,163.39366983657));
#76 = VECTOR('',#77,1.);
#77 = DIRECTION('',(0.239065931168,-0.588469984414,-0.772366854544));
#78 = PCURVE('',#33,#79);
#79 = DEFINITIONAL_REPRESENTATION('',(#80),#84);
#80 = LINE('',#81,#82);
#81 = CARTESIAN_POINT('',(6.28318530718,-0.));
#82 = VECTOR('',#83,1.);
#83 = DIRECTION('',(0.,1.));
#84 = ( GEOMETRIC_REPRESENTATION_CONTEXT(2) 
PARAMETRIC_REPRESENTATION_CONTEXT() REPRESENTATION_CONTEXT('2D SPACE',''
  ) );
#85 = PCURVE('',#33,#86);
#86 = DEFINITIONAL_REPRESENTATION('',(#87),#91);
#87 = LINE('',#88,#89);
#88 = CARTESIAN_POINT('',(0.,-0.));
#89 = VECTOR('',#90,1.);
#90 = DIRECTION('',(0.,1.));
#91 = ( GEOMETRIC_REPRESENTATION_CONTEXT(2) 
PARAMETRIC_REPRESENTATION_CONTEXT() REPRESENTATION_CONTEXT('2D SPACE',''
  ) );
#92 = ORIENTED_EDGE('',*,*,#93,.T.);
#93 = EDGE_CURVE('',#71,#94,#96,.T.);
#94 = VERTEX_POINT('',#95);
#95 = CARTESIAN_POINT('',(76.639768054604,-7.833844227817,154.));
#96 = SURFACE_CURVE('',#97,(#102,#109),.PCURVE_S1.);
#97 = CIRCLE('',#98,15.5);
#98 = AXIS2_PLACEMENT_3D('',#99,#100,#101);
#99 = CARTESIAN_POINT('',(91.,-2.,154.));
#100 = DIRECTION('',(0.239065931168,-0.588469984414,-0.772366854544));
#101 = DIRECTION('',(1.387778780781E-17,-0.795431720032,0.606043215263)
  );
#102 = PCURVE('',#33,#103);
#103 = DEFINITIONAL_REPRESENTATION('',(#104),#108);
#104 = LINE('',#105,#106);
#105 = CARTESIAN_POINT('',(0.,0.));
#106 = VECTOR('',#107,1.);
#107 = DIRECTION('',(1.,0.));
#108 = ( GEOMETRIC_REPRESENTATION_CONTEXT(2) 
PARAMETRIC_REPRESENTATION_CONTEXT() REPRESENTATION_CONTEXT('2D SPACE',''
  ) );
#109 = PCURVE('',#110,#115);
#110 = SPHERICAL_SURFACE('',#111,15.5);
#111 = AXIS2_PLACEMENT_3D('',#112,#113,#114);
#112 = CARTESIAN_POINT('',(91.,-2.,154.));
#113 = DIRECTION('',(0.,0.,1.));
#114 = DIRECTION('',(1.,0.,-0.));
#115 = DEFINITIONAL_REPRESENTATION('',(#116),#133);
#116 = B_SPLINE_CURVE_WITH_KNOTS('',8,(#117,#118,#119,#120,#121,#122,
    #123,#124,#125,#126,#127,#128,#129,#130,#131,#132),.UNSPECIFIED.,.F.
  ,.F.,(9,7,9),(0.,0.633375596703,1.266751193406),.UNSPECIFIED.);
#117 = CARTESIAN_POINT('',(4.712388980385,0.651076721444));
#118 = CARTESIAN_POINT('',(4.61574180714,0.632149405594));
#119 = CARTESIAN_POINT('',(4.522280320505,0.608076043548));
#120 = CARTESIAN_POINT('',(4.432725530662,0.579323600382));
#121 = CARTESIAN_POINT('',(4.347396001496,0.546479798398));
#122 = CARTESIAN_POINT('',(4.266162839369,0.510150119693));
#123 = CARTESIAN_POINT('',(4.188706073079,0.470878932285));
#124 = CARTESIAN_POINT('',(4.114602633204,0.429155282183));
#125 = CARTESIAN_POINT('',(3.972173233012,0.34166965664));
#126 = CARTESIAN_POINT('',(3.903847300024,0.295907684515));
#127 = CARTESIAN_POINT('',(3.837945053672,0.248560367674));
#128 = CARTESIAN_POINT('',(3.773959851572,0.200006441011));
#129 = CARTESIAN_POINT('',(3.711395821049,0.150578080425));
#130 = CARTESIAN_POINT('',(3.649774945818,0.100576330798));
#131 = CARTESIAN_POINT('',(3.588625112659,5.02881777827E-02));
#132 = CARTESIAN_POINT('',(3.527475322988,7.334634691717E-15));
#133 = ( GEOMETRIC_REPRESENTATION_CONTEXT(2) 
PARAMETRIC_REPRESENTATION_CONTEXT() REPRESENTATION_CONTEXT('2D SPACE',''
  ) );
#134 = ORIENTED_EDGE('',*,*,#135,.T.);
#135 = EDGE_CURVE('',#94,#136,#138,.T.);
#136 = VERTEX_POINT('',#137);
#137 = CARTESIAN_POINT('',(105.36023194539,3.833844227817,154.));
#138 = SURFACE_CURVE('',#139,(#144,#151),.PCURVE_S1.);
#139 = CIRCLE('',#140,15.5);
#140 = AXIS2_PLACEMENT_3D('',#141,#142,#143);
#141 = CARTESIAN_POINT('',(91.,-2.,154.));
#142 = DIRECTION('',(0.239065931168,-0.588469984414,-0.772366854544));
#143 = DIRECTION('',(1.387778780781E-17,-0.795431720032,0.606043215263)
  );
#144 = PCURVE('',#33,#145);
#145 = DEFINITIONAL_REPRESENTATION('',(#146),#150);
#146 = LINE('',#147,#148);
#147 = CARTESIAN_POINT('',(0.,0.));
#148 = VECTOR('',#149,1.);
#149 = DIRECTION('',(1.,0.));
#150 = ( GEOMETRIC_REPRESENTATION_CONTEXT(2) 
PARAMETRIC_REPRESENTATION_CONTEXT() REPRESENTATION_CONTEXT('2D SPACE',''
  ) );
#151 = PCURVE('',#152,#157);
#152 = PLANE('',#153);
#153 = AXIS2_PLACEMENT_3D('',#154,#155,#156);
#154 = CARTESIAN_POINT('',(91.,-2.,154.));
#155 = DIRECTION('',(0.239065931168,-0.588469984414,-0.772366854544));
#156 = DIRECTION('',(1.387778780781E-17,-0.795431720032,0.606043215263)
  );
#157 = DEFINITIONAL_REPRESENTATION('',(#158),#162);
#158 = CIRCLE('',#159,15.5);
#159 = AXIS2_PLACEMENT_2D('',#160,#161);
#160 = CARTESIAN_POINT('',(0.,0.));
#161 = DIRECTION('',(1.,0.));
#162 = ( GEOMETRIC_REPRESENTATION_CONTEXT(2) 
PARAMETRIC_REPRESENTATION_CONTEXT() REPRESENTATION_CONTEXT('2D SPACE',''
  ) );
#163 = ORIENTED_EDGE('',*,*,#164,.T.);
#164 = EDGE_CURVE('',#136,#165,#167,.T.);
#165 = VERTEX_POINT('',#166);
#166 = CARTESIAN_POINT('',(105.80693130571,-2.,158.5830977851));
#167 = SURFACE_CURVE('',#168,(#173,#180),.PCURVE_S1.);
#168 = CIRCLE('',#169,15.5);
#169 = AXIS2_PLACEMENT_3D('',#170,#171,#172);
#170 = CARTESIAN_POINT('',(91.,-2.,154.));
#171 = DIRECTION('',(0.239065931168,-0.588469984414,-0.772366854544));
#172 = DIRECTION('',(1.387778780781E-17,-0.795431720032,0.606043215263)
  );
#173 = PCURVE('',#33,#174);
#174 = DEFINITIONAL_REPRESENTATION('',(#175),#179);
#175 = LINE('',#176,#177);
#176 = CARTESIAN_POINT('',(0.,0.));
#177 = VECTOR('',#178,1.);
#178 = DIRECTION('',(1.,0.));
#179 = ( GEOMETRIC_REPRESENTATION_CONTEXT(2) 
PARAMETRIC_REPRESENTATION_CONTEXT() REPRESENTATION_CONTEXT('2D SPACE',''
  ) );
#180 = PCURVE('',#110,#181);
#181 = DEFINITIONAL_REPRESENTATION('',(#182),#191);
#182 = B_SPLINE_CURVE_WITH_KNOTS('',7,(#183,#184,#185,#186,#187,#188,
    #189,#190),.UNSPECIFIED.,.F.,.F.,(8,8),(4.408343846996,
    4.892559278201),.PIECEWISE_BEZIER_KNOTS.);
#183 = CARTESIAN_POINT('',(0.385882669398,1.466926938343E-14));
#184 = CARTESIAN_POINT('',(0.332455248038,4.393748005139E-02));
#185 = CARTESIAN_POINT('',(0.279027820817,8.787495743193E-02));
#186 = CARTESIAN_POINT('',(0.225263504631,0.131607602033));
#187 = CARTESIAN_POINT('',(0.170825194935,0.174930485046));
#188 = CARTESIAN_POINT('',(0.115370855609,0.217628411642));
#189 = CARTESIAN_POINT('',(5.854603485778E-02,0.25946456408));
#190 = CARTESIAN_POINT('',(-7.993605777301E-15,0.30017117083));
#191 = ( GEOMETRIC_REPRESENTATION_CONTEXT(2) 
PARAMETRIC_REPRESENTATION_CONTEXT() REPRESENTATION_CONTEXT('2D SPACE',''
  ) );
#192 = ORIENTED_EDGE('',*,*,#193,.T.);
#193 = EDGE_CURVE('',#165,#71,#194,.T.);
#194 = SURFACE_CURVE('',#195,(#200,#207),.PCURVE_S1.);
#195 = CIRCLE('',#196,15.5);
#196 = AXIS2_PLACEMENT_3D('',#197,#198,#199);
#197 = CARTESIAN_POINT('',(91.,-2.,154.));
#198 = DIRECTION('',(0.239065931168,-0.588469984414,-0.772366854544));
#199 = DIRECTION('',(1.387778780781E-17,-0.795431720032,0.606043215263)
  );
#200 = PCURVE('',#33,#201);
#201 = DEFINITIONAL_REPRESENTATION('',(#202),#206);
#202 = LINE('',#203,#204);
#203 = CARTESIAN_POINT('',(0.,0.));
#204 = VECTOR('',#205,1.);
#205 = DIRECTION('',(1.,0.));
#206 = ( GEOMETRIC_REPRESENTATION_CONTEXT(2) 
PARAMETRIC_REPRESENTATION_CONTEXT() REPRESENTATION_CONTEXT('2D SPACE',''
  ) );
#207 = PCURVE('',#110,#208);
#208 = DEFINITIONAL_REPRESENTATION('',(#209),#233);
#209 = B_SPLINE_CURVE_WITH_KNOTS('',8,(#210,#211,#212,#213,#214,#215,
    #216,#217,#218,#219,#220,#221,#222,#223,#224,#225,#226,#227,#228,
    #229,#230,#231,#232),.UNSPECIFIED.,.F.,.F.,(9,7,7,9),(4.892559278201
    ,5.58787229269,5.935528799935,6.28318530718),.UNSPECIFIED.);
#210 = CARTESIAN_POINT('',(6.28318530718,0.30017117083));
#211 = CARTESIAN_POINT('',(6.209624366759,0.35131752568));
#212 = CARTESIAN_POINT('',(6.133401482067,0.400717019639));
#213 = CARTESIAN_POINT('',(6.053868864474,0.447874558357));
#214 = CARTESIAN_POINT('',(5.970381049818,0.492227620526));
#215 = CARTESIAN_POINT('',(5.882359475487,0.533133544998));
#216 = CARTESIAN_POINT('',(5.789329363029,0.569843473463));
#217 = CARTESIAN_POINT('',(5.691294929222,0.60155414258));
#218 = CARTESIAN_POINT('',(5.537616219608,0.64056778014));
#219 = CARTESIAN_POINT('',(5.485285450781,0.652146861847));
#220 = CARTESIAN_POINT('',(5.431923320785,0.66221288918));
#221 = CARTESIAN_POINT('',(5.377638928534,0.670683660295));
#222 = CARTESIAN_POINT('',(5.322580738366,0.677488224954));
#223 = CARTESIAN_POINT('',(5.266932923287,0.682571623193));
#224 = CARTESIAN_POINT('',(5.210904613822,0.685898499432));
#225 = CARTESIAN_POINT('',(5.098519491155,0.68901268462));
#226 = CARTESIAN_POINT('',(5.042162739053,0.688799934602));
#227 = CARTESIAN_POINT('',(4.985858178991,0.686803845616));
#228 = CARTESIAN_POINT('',(4.929830594886,0.683032175577));
#229 = CARTESIAN_POINT('',(4.874296386635,0.677515445246));
#230 = CARTESIAN_POINT('',(4.819447037401,0.67030448538));
#231 = CARTESIAN_POINT('',(4.765438101412,0.661465824773));
#232 = CARTESIAN_POINT('',(4.712388980385,0.651076721444));
#233 = ( GEOMETRIC_REPRESENTATION_CONTEXT(2) 
PARAMETRIC_REPRESENTATION_CONTEXT() REPRESENTATION_CONTEXT('2D SPACE',''
  ) );
#234 = ORIENTED_EDGE('',*,*,#70,.T.);
#235 = ORIENTED_EDGE('',*,*,#236,.F.);
#236 = EDGE_CURVE('',#237,#22,#239,.T.);
#237 = VERTEX_POINT('',#238);
#238 = CARTESIAN_POINT('',(118.80693130571,-34.,116.5830977851));
#239 = SURFACE_CURVE('',#240,(#245,#252),.PCURVE_S1.);
#240 = CIRCLE('',#241,15.5);
#241 = AXIS2_PLACEMENT_3D('',#242,#243,#244);
#242 = CARTESIAN_POINT('',(104.,-34.,112.));
#243 = DIRECTION('',(0.239065931168,-0.588469984414,-0.772366854544));
#244 = DIRECTION('',(1.387778780781E-17,-0.795431720032,0.606043215263)
  );
#245 = PCURVE('',#33,#246);
#246 = DEFINITIONAL_REPRESENTATION('',(#247),#251);
#247 = LINE('',#248,#249);
#248 = CARTESIAN_POINT('',(0.,54.37830449729));
#249 = VECTOR('',#250,1.);
#250 = DIRECTION('',(1.,0.));
#251 = ( GEOMETRIC_REPRESENTATION_CONTEXT(2) 
PARAMETRIC_REPRESENTATION_CONTEXT() REPRESENTATION_CONTEXT('2D SPACE',''
  ) );
#252 = PCURVE('',#45,#253);
#253 = DEFINITIONAL_REPRESENTATION('',(#254),#278);
#254 = B_SPLINE_CURVE_WITH_KNOTS('',8,(#255,#256,#257,#258,#259,#260,
    #261,#262,#263,#264,#265,#266,#267,#268,#269,#270,#271,#272,#273,
    #274,#275,#276,#277),.UNSPECIFIED.,.F.,.F.,(9,7,7,9),(4.892559278201
    ,5.58787229269,5.935528799935,6.28318530718),.UNSPECIFIED.);
#255 = CARTESIAN_POINT('',(6.28318530718,0.30017117083));
#256 = CARTESIAN_POINT('',(6.209624366759,0.35131752568));
#257 = CARTESIAN_POINT('',(6.133401482069,0.40071701964));
#258 = CARTESIAN_POINT('',(6.053868864456,0.447874558353));
#259 = CARTESIAN_POINT('',(5.97038104981,0.492227620529));
#260 = CARTESIAN_POINT('',(5.882359475494,0.533133544995));
#261 = CARTESIAN_POINT('',(5.78932936303,0.569843473464));
#262 = CARTESIAN_POINT('',(5.691294929222,0.60155414258));
#263 = CARTESIAN_POINT('',(5.537616219608,0.64056778014));
#264 = CARTESIAN_POINT('',(5.485285450781,0.652146861847));
#265 = CARTESIAN_POINT('',(5.431923320785,0.66221288918));
#266 = CARTESIAN_POINT('',(5.377638928534,0.670683660295));
#267 = CARTESIAN_POINT('',(5.322580738367,0.677488224954));
#268 = CARTESIAN_POINT('',(5.266932923287,0.682571623193));
#269 = CARTESIAN_POINT('',(5.210904613822,0.685898499432));
#270 = CARTESIAN_POINT('',(5.098519491155,0.68901268462));
#271 = CARTESIAN_POINT('',(5.042162739053,0.688799934602));
#272 = CARTESIAN_POINT('',(4.985858178991,0.686803845616));
#273 = CARTESIAN_POINT('',(4.929830594886,0.683032175577));
#274 = CARTESIAN_POINT('',(4.874296386635,0.677515445246));
#275 = CARTESIAN_POINT('',(4.819447037402,0.67030448538));
#276 = CARTESIAN_POINT('',(4.765438101412,0.661465824773));
#277 = CARTESIAN_POINT('',(4.712388980385,0.651076721444));
#278 = ( GEOMETRIC_REPRESENTATION_CONTEXT(2) 
PARAMETRIC_REPRESENTATION_CONTEXT() REPRESENTATION_CONTEXT('2D SPACE',''
  ) );
#279 = ORIENTED_EDGE('',*,*,#280,.F.);
#280 = EDGE_CURVE('',#281,#237,#283,.T.);
#281 = VERTEX_POINT('',#282);
#282 = CARTESIAN_POINT('',(118.36023194539,-28.16615577218,112.));
#283 = SURFACE_CURVE('',#284,(#289,#296),.PCURVE_S1.);
#284 = CIRCLE('',#285,15.5);
#285 = AXIS2_PLACEMENT_3D('',#286,#287,#288);
#286 = CARTESIAN_POINT('',(104.,-34.,112.));
#287 = DIRECTION('',(0.239065931168,-0.588469984414,-0.772366854544));
#288 = DIRECTION('',(1.387778780781E-17,-0.795431720032,0.606043215263)
  );
#289 = PCURVE('',#33,#290);
#290 = DEFINITIONAL_REPRESENTATION('',(#291),#295);
#291 = LINE('',#292,#293);
#292 = CARTESIAN_POINT('',(0.,54.37830449729));
#293 = VECTOR('',#294,1.);
#294 = DIRECTION('',(1.,0.));
#295 = ( GEOMETRIC_REPRESENTATION_CONTEXT(2) 
PARAMETRIC_REPRESENTATION_CONTEXT() REPRESENTATION_CONTEXT('2D SPACE',''
  ) );
#296 = PCURVE('',#297,#302);
#297 = SPHERICAL_SURFACE('',#298,15.5);
#298 = AXIS2_PLACEMENT_3D('',#299,#300,#301);
#299 = CARTESIAN_POINT('',(104.,-34.,112.));
#300 = DIRECTION('',(0.,0.,1.));
#301 = DIRECTION('',(1.,0.,-0.));
#302 = DEFINITIONAL_REPRESENTATION('',(#303),#312);
#303 = B_SPLINE_CURVE_WITH_KNOTS('',7,(#304,#305,#306,#307,#308,#309,
    #310,#311),.UNSPECIFIED.,.F.,.F.,(8,8),(4.408343846996,
    4.892559278201),.PIECEWISE_BEZIER_KNOTS.);
#304 = CARTESIAN_POINT('',(0.385882669398,1.466926938343E-14));
#305 = CARTESIAN_POINT('',(0.332455248038,4.393748005139E-02));
#306 = CARTESIAN_POINT('',(0.279027820817,8.787495743194E-02));
#307 = CARTESIAN_POINT('',(0.225263504631,0.131607602033));
#308 = CARTESIAN_POINT('',(0.170825194935,0.174930485046));
#309 = CARTESIAN_POINT('',(0.115370855609,0.217628411642));
#310 = CARTESIAN_POINT('',(5.854603485778E-02,0.25946456408));
#311 = CARTESIAN_POINT('',(-7.105427357601E-15,0.30017117083));
#312 = ( GEOMETRIC_REPRESENTATION_CONTEXT(2) 
PARAMETRIC_REPRESENTATION_CONTEXT() REPRESENTATION_CONTEXT('2D SPACE',''
  ) );
#313 = ORIENTED_EDGE('',*,*,#314,.F.);
#314 = EDGE_CURVE('',#24,#281,#315,.T.);
#315 = SURFACE_CURVE('',#316,(#321,#328),.PCURVE_S1.);
#316 = CIRCLE('',#317,15.5);
#317 = AXIS2_PLACEMENT_3D('',#318,#319,#320);
#318 = CARTESIAN_POINT('',(104.,-34.,112.));
#319 = DIRECTION('',(0.239065931168,-0.588469984414,-0.772366854544));
#320 = DIRECTION('',(1.387778780781E-17,-0.795431720032,0.606043215263)
  );
#321 = PCURVE('',#33,#322);
#322 = DEFINITIONAL_REPRESENTATION('',(#323),#327);
#323 = LINE('',#324,#325);
#324 = CARTESIAN_POINT('',(0.,54.37830449729));
#325 = VECTOR('',#326,1.);
#326 = DIRECTION('',(1.,0.));
#327 = ( GEOMETRIC_REPRESENTATION_CONTEXT(2) 
PARAMETRIC_REPRESENTATION_CONTEXT() REPRESENTATION_CONTEXT('2D SPACE',''
  ) );
#328 = PCURVE('',#329,#334);
#329 = PLANE('',#330);
#330 = AXIS2_PLACEMENT_3D('',#331,#332,#333);
#331 = CARTESIAN_POINT('',(104.,-34.,112.));
#332 = DIRECTION('',(0.239065931168,-0.588469984414,-0.772366854544));
#333 = DIRECTION('',(1.387778780781E-17,-0.795431720032,0.606043215263)
  );
#334 = DEFINITIONAL_REPRESENTATION('',(#335),#339);
#335 = CIRCLE('',#336,15.5);
#336 = AXIS2_PLACEMENT_2D('',#337,#338);
#337 = CARTESIAN_POINT('',(0.,0.));
#338 = DIRECTION('',(1.,0.));
#339 = ( GEOMETRIC_REPRESENTATION_CONTEXT(2) 
PARAMETRIC_REPRESENTATION_CONTEXT() REPRESENTATION_CONTEXT('2D SPACE',''
  ) );
#340 = ADVANCED_FACE('',(#341),#45,.T.);
#341 = FACE_BOUND('',#342,.T.);
#342 = EDGE_LOOP('',(#343,#367,#368,#369));
#343 = ORIENTED_EDGE('',*,*,#344,.T.);
#344 = EDGE_CURVE('',#345,#237,#347,.T.);
#345 = VERTEX_POINT('',#346);
#346 = CARTESIAN_POINT('',(119.5,-34.,112.));
#347 = SURFACE_CURVE('',#348,(#353,#360),.PCURVE_S1.);
#348 = CIRCLE('',#349,15.5);
#349 = AXIS2_PLACEMENT_3D('',#350,#351,#352);
#350 = CARTESIAN_POINT('',(104.,-34.,112.));
#351 = DIRECTION('',(-2.449293598295E-16,-1.,0.));
#352 = DIRECTION('',(1.,-2.449293598295E-16,0.));
#353 = PCURVE('',#45,#354);
#354 = DEFINITIONAL_REPRESENTATION('',(#355),#359);
#355 = LINE('',#356,#357);
#356 = CARTESIAN_POINT('',(6.28318530718,-6.28318530718));
#357 = VECTOR('',#358,1.);
#358 = DIRECTION('',(0.,1.));
#359 = ( GEOMETRIC_REPRESENTATION_CONTEXT(2) 
PARAMETRIC_REPRESENTATION_CONTEXT() REPRESENTATION_CONTEXT('2D SPACE',''
  ) );
#360 = PCURVE('',#297,#361);
#361 = DEFINITIONAL_REPRESENTATION('',(#362),#366);
#362 = LINE('',#363,#364);
#363 = CARTESIAN_POINT('',(0.,-6.28318530718));
#364 = VECTOR('',#365,1.);
#365 = DIRECTION('',(0.,1.));
#366 = ( GEOMETRIC_REPRESENTATION_CONTEXT(2) 
PARAMETRIC_REPRESENTATION_CONTEXT() REPRESENTATION_CONTEXT('2D SPACE',''
  ) );
#367 = ORIENTED_EDGE('',*,*,#236,.T.);
#368 = ORIENTED_EDGE('',*,*,#21,.T.);
#369 = ORIENTED_EDGE('',*,*,#370,.T.);
#370 = EDGE_CURVE('',#24,#345,#371,.T.);
#371 = SURFACE_CURVE('',#372,(#377,#384),.PCURVE_S1.);
#372 = CIRCLE('',#373,15.5);
#373 = AXIS2_PLACEMENT_3D('',#374,#375,#376);
#374 = CARTESIAN_POINT('',(104.,-34.,112.));
#375 = DIRECTION('',(0.,0.,1.));
#376 = DIRECTION('',(1.,0.,-0.));
#377 = PCURVE('',#45,#378);
#378 = DEFINITIONAL_REPRESENTATION('',(#379),#383);
#379 = LINE('',#380,#381);
#380 = CARTESIAN_POINT('',(0.,0.));
#381 = VECTOR('',#382,1.);
#382 = DIRECTION('',(1.,0.));
#383 = ( GEOMETRIC_REPRESENTATION_CONTEXT(2) 
PARAMETRIC_REPRESENTATION_CONTEXT() REPRESENTATION_CONTEXT('2D SPACE',''
  ) );
#384 = PCURVE('',#385,#390);
#385 = PLANE('',#386);
#386 = AXIS2_PLACEMENT_3D('',#387,#388,#389);
#387 = CARTESIAN_POINT('',(104.,-34.,112.));
#388 = DIRECTION('',(0.,0.,1.));
#389 = DIRECTION('',(1.,0.,-0.));
#390 = DEFINITIONAL_REPRESENTATION('',(#391),#395);
#391 = CIRCLE('',#392,15.5);
#392 = AXIS2_PLACEMENT_2D('',#393,#394);
#393 = CARTESIAN_POINT('',(0.,0.));
#394 = DIRECTION('',(1.,0.));
#395 = ( GEOMETRIC_REPRESENTATION_CONTEXT(2) 
PARAMETRIC_REPRESENTATION_CONTEXT() REPRESENTATION_CONTEXT('2D SPACE',''
  ) );
#396 = ADVANCED_FACE('',(#397),#329,.T.);
#397 = FACE_BOUND('',#398,.T.);
#398 = EDGE_LOOP('',(#399,#418));
#399 = ORIENTED_EDGE('',*,*,#400,.T.);
#400 = EDGE_CURVE('',#281,#24,#401,.T.);
#401 = SURFACE_CURVE('',#402,(#406,#412),.PCURVE_S1.);
#402 = LINE('',#403,#404);
#403 = CARTESIAN_POINT('',(104.,-34.,112.));
#404 = VECTOR('',#405,1.);
#405 = DIRECTION('',(-0.926466577122,-0.376377046956,0.));
#406 = PCURVE('',#329,#407);
#407 = DEFINITIONAL_REPRESENTATION('',(#408),#411);
#408 = B_SPLINE_CURVE_WITH_KNOTS('',1,(#409,#410),.UNSPECIFIED.,.F.,.F.,
  (2,2),(-16.24511028877,16.245110288773),.PIECEWISE_BEZIER_KNOTS.);
#409 = CARTESIAN_POINT('',(-4.863497537206,-15.5));
#410 = CARTESIAN_POINT('',(4.863497537206,15.5));
#411 = ( GEOMETRIC_REPRESENTATION_CONTEXT(2) 
PARAMETRIC_REPRESENTATION_CONTEXT() REPRESENTATION_CONTEXT('2D SPACE',''
  ) );
#412 = PCURVE('',#385,#413);
#413 = DEFINITIONAL_REPRESENTATION('',(#414),#417);
#414 = B_SPLINE_CURVE_WITH_KNOTS('',1,(#415,#416),.UNSPECIFIED.,.F.,.F.,
  (2,2),(-16.24511028877,16.245110288773),.PIECEWISE_BEZIER_KNOTS.);
#415 = CARTESIAN_POINT('',(15.050551724214,6.114286637962));
#416 = CARTESIAN_POINT('',(-15.05055172421,-6.114286637962));
#417 = ( GEOMETRIC_REPRESENTATION_CONTEXT(2) 
PARAMETRIC_REPRESENTATION_CONTEXT() REPRESENTATION_CONTEXT('2D SPACE',''
  ) );
#418 = ORIENTED_EDGE('',*,*,#314,.T.);
#419 = ADVANCED_FACE('',(#420),#297,.T.);
#420 = FACE_BOUND('',#421,.T.);
#421 = EDGE_LOOP('',(#422,#423,#424));
#422 = ORIENTED_EDGE('',*,*,#280,.T.);
#423 = ORIENTED_EDGE('',*,*,#344,.F.);
#424 = ORIENTED_EDGE('',*,*,#425,.T.);
#425 = EDGE_CURVE('',#345,#281,#426,.T.);
#426 = SURFACE_CURVE('',#427,(#432,#439),.PCURVE_S1.);
#427 = CIRCLE('',#428,15.5);
#428 = AXIS2_PLACEMENT_3D('',#429,#430,#431);
#429 = CARTESIAN_POINT('',(104.,-34.,112.));
#430 = DIRECTION('',(0.,0.,1.));
#431 = DIRECTION('',(1.,0.,-0.));
#432 = PCURVE('',#297,#433);
#433 = DEFINITIONAL_REPRESENTATION('',(#434),#438);
#434 = LINE('',#435,#436);
#435 = CARTESIAN_POINT('',(0.,0.));
#436 = VECTOR('',#437,1.);
#437 = DIRECTION('',(1.,0.));
#438 = ( GEOMETRIC_REPRESENTATION_CONTEXT(2) 
PARAMETRIC_REPRESENTATION_CONTEXT() REPRESENTATION_CONTEXT('2D SPACE',''
  ) );
#439 = PCURVE('',#385,#440);
#440 = DEFINITIONAL_REPRESENTATION('',(#441),#445);
#441 = CIRCLE('',#442,15.5);
#442 = AXIS2_PLACEMENT_2D('',#443,#444);
#443 = CARTESIAN_POINT('',(0.,0.));
#444 = DIRECTION('',(1.,0.));
#445 = ( GEOMETRIC_REPRESENTATION_CONTEXT(2) 
PARAMETRIC_REPRESENTATION_CONTEXT() REPRESENTATION_CONTEXT('2D SPACE',''
  ) );
#446 = ADVANCED_FACE('',(#447),#110,.T.);
#447 = FACE_BOUND('',#448,.T.);
#448 = EDGE_LOOP('',(#449,#473,#474,#475,#502,#503));
#449 = ORIENTED_EDGE('',*,*,#450,.T.);
#450 = EDGE_CURVE('',#165,#451,#453,.T.);
#451 = VERTEX_POINT('',#452);
#452 = CARTESIAN_POINT('',(91.,-2.,169.5));
#453 = SEAM_CURVE('',#454,(#459,#466),.PCURVE_S1.);
#454 = CIRCLE('',#455,15.5);
#455 = AXIS2_PLACEMENT_3D('',#456,#457,#458);
#456 = CARTESIAN_POINT('',(91.,-2.,154.));
#457 = DIRECTION('',(-2.449293598295E-16,-1.,0.));
#458 = DIRECTION('',(1.,-2.449293598295E-16,0.));
#459 = PCURVE('',#110,#460);
#460 = DEFINITIONAL_REPRESENTATION('',(#461),#465);
#461 = LINE('',#462,#463);
#462 = CARTESIAN_POINT('',(6.28318530718,-6.28318530718));
#463 = VECTOR('',#464,1.);
#464 = DIRECTION('',(0.,1.));
#465 = ( GEOMETRIC_REPRESENTATION_CONTEXT(2) 
PARAMETRIC_REPRESENTATION_CONTEXT() REPRESENTATION_CONTEXT('2D SPACE',''
  ) );
#466 = PCURVE('',#110,#467);
#467 = DEFINITIONAL_REPRESENTATION('',(#468),#472);
#468 = LINE('',#469,#470);
#469 = CARTESIAN_POINT('',(0.,-6.28318530718));
#470 = VECTOR('',#471,1.);
#471 = DIRECTION('',(0.,1.));
#472 = ( GEOMETRIC_REPRESENTATION_CONTEXT(2) 
PARAMETRIC_REPRESENTATION_CONTEXT() REPRESENTATION_CONTEXT('2D SPACE',''
  ) );
#473 = ORIENTED_EDGE('',*,*,#450,.F.);
#474 = ORIENTED_EDGE('',*,*,#164,.F.);
#475 = ORIENTED_EDGE('',*,*,#476,.T.);
#476 = EDGE_CURVE('',#136,#94,#477,.T.);
#477 = SURFACE_CURVE('',#478,(#483,#490),.PCURVE_S1.);
#478 = CIRCLE('',#479,15.5);
#479 = AXIS2_PLACEMENT_3D('',#480,#481,#482);
#480 = CARTESIAN_POINT('',(91.,-2.,154.));
#481 = DIRECTION('',(0.,0.,1.));
#482 = DIRECTION('',(1.,0.,-0.));
#483 = PCURVE('',#110,#484);
#484 = DEFINITIONAL_REPRESENTATION('',(#485),#489);
#485 = LINE('',#486,#487);
#486 = CARTESIAN_POINT('',(0.,0.));
#487 = VECTOR('',#488,1.);
#488 = DIRECTION('',(1.,0.));
#489 = ( GEOMETRIC_REPRESENTATION_CONTEXT(2) 
PARAMETRIC_REPRESENTATION_CONTEXT() REPRESENTATION_CONTEXT('2D SPACE',''
  ) );
#490 = PCURVE('',#491,#496);
#491 = PLANE('',#492);
#492 = AXIS2_PLACEMENT_3D('',#493,#494,#495);
#493 = CARTESIAN_POINT('',(91.,-2.,154.));
#494 = DIRECTION('',(0.,0.,1.));
#495 = DIRECTION('',(1.,0.,-0.));
#496 = DEFINITIONAL_REPRESENTATION('',(#497),#501);
#497 = CIRCLE('',#498,15.5);
#498 = AXIS2_PLACEMENT_2D('',#499,#500);
#499 = CARTESIAN_POINT('',(0.,0.));
#500 = DIRECTION('',(1.,0.));
#501 = ( GEOMETRIC_REPRESENTATION_CONTEXT(2) 
PARAMETRIC_REPRESENTATION_CONTEXT() REPRESENTATION_CONTEXT('2D SPACE',''
  ) );
#502 = ORIENTED_EDGE('',*,*,#93,.F.);
#503 = ORIENTED_EDGE('',*,*,#193,.F.);
#504 = ADVANCED_FACE('',(#505),#152,.F.);
#505 = FACE_BOUND('',#506,.F.);
#506 = EDGE_LOOP('',(#507,#526));
#507 = ORIENTED_EDGE('',*,*,#508,.T.);
#508 = EDGE_CURVE('',#136,#94,#509,.T.);
#509 = SURFACE_CURVE('',#510,(#514,#520),.PCURVE_S1.);
#510 = LINE('',#511,#512);
#511 = CARTESIAN_POINT('',(91.,-2.,154.));
#512 = VECTOR('',#513,1.);
#513 = DIRECTION('',(-0.926466577122,-0.376377046956,0.));
#514 = PCURVE('',#152,#515);
#515 = DEFINITIONAL_REPRESENTATION('',(#516),#519);
#516 = B_SPLINE_CURVE_WITH_KNOTS('',1,(#517,#518),.UNSPECIFIED.,.F.,.F.,
  (2,2),(-16.24511028877,16.245110288773),.PIECEWISE_BEZIER_KNOTS.);
#517 = CARTESIAN_POINT('',(-4.863497537206,-15.5));
#518 = CARTESIAN_POINT('',(4.863497537206,15.5));
#519 = ( GEOMETRIC_REPRESENTATION_CONTEXT(2) 
PARAMETRIC_REPRESENTATION_CONTEXT() REPRESENTATION_CONTEXT('2D SPACE',''
  ) );
#520 = PCURVE('',#491,#521);
#521 = DEFINITIONAL_REPRESENTATION('',(#522),#525);
#522 = B_SPLINE_CURVE_WITH_KNOTS('',1,(#523,#524),.UNSPECIFIED.,.F.,.F.,
  (2,2),(-16.24511028877,16.245110288773),.PIECEWISE_BEZIER_KNOTS.);
#523 = CARTESIAN_POINT('',(15.050551724214,6.114286637962));
#524 = CARTESIAN_POINT('',(-15.05055172421,-6.114286637962));
#525 = ( GEOMETRIC_REPRESENTATION_CONTEXT(2) 
PARAMETRIC_REPRESENTATION_CONTEXT() REPRESENTATION_CONTEXT('2D SPACE',''
  ) );
#526 = ORIENTED_EDGE('',*,*,#135,.T.);
#527 = ADVANCED_FACE('',(#528),#385,.F.);
#528 = FACE_BOUND('',#529,.F.);
#529 = EDGE_LOOP('',(#530,#531,#532));
#530 = ORIENTED_EDGE('',*,*,#370,.T.);
#531 = ORIENTED_EDGE('',*,*,#425,.T.);
#532 = ORIENTED_EDGE('',*,*,#400,.T.);
#533 = ADVANCED_FACE('',(#534),#491,.F.);
#534 = FACE_BOUND('',#535,.F.);
#535 = EDGE_LOOP('',(#536,#537));
#536 = ORIENTED_EDGE('',*,*,#508,.F.);
#537 = ORIENTED_EDGE('',*,*,#476,.T.);
#538 = ( GEOMETRIC_REPRESENTATION_CONTEXT(3) 
GLOBAL_UNCERTAINTY_ASSIGNED_CONTEXT((#542)) GLOBAL_UNIT_ASSIGNED_CONTEXT
((#539,#540,#541)) REPRESENTATION_CONTEXT('Context #1',
  '3D Context with UNIT and UNCERTAINTY') );
#539 = ( LENGTH_UNIT() NAMED_UNIT(*) SI_UNIT(.MILLI.,.METRE.) );
#540 = ( NAMED_UNIT(*) PLANE_ANGLE_UNIT() SI_UNIT($,.RADIAN.) );
#541 = ( NAMED_UNIT(*) SI_UNIT($,.STERADIAN.) SOLID_ANGLE_UNIT() );
#542 = UNCERTAINTY_MEASURE_WITH_UNIT(LENGTH_MEASURE(2.E-07),#539,
  'distance_accuracy_value','confusion accuracy');
#543 = PRODUCT_RELATED_PRODUCT_CATEGORY('part',$,(#7));
ENDSEC;
END-ISO-10303-21;
